<svg width="176" height="97" viewBox="0 0 176 97" fill="none" xmlns="http://www.w3.org/2000/svg">
<path fill-rule="evenodd" clip-rule="evenodd" d="M0.595169 48.7978C5.09644 57.4866 12.1005 71.0065 36.5 66.8156C56.1432 63.4417 61.9405 73.9291 67.3765 83.7629C68.2514 85.3456 69.117 86.9115 70.0294 88.3999C71.4713 90.7517 74.1102 92 76.8689 92H88H99.1311C101.89 92 104.529 90.7517 105.971 88.3999C106.883 86.9115 107.749 85.3456 108.624 83.7629C114.06 73.9291 119.857 63.4417 139.5 66.8156C163.899 71.0065 170.904 57.4866 175.405 48.7978C175.794 48.0456 176 47.2111 176 46.3639V7.4764C176 1.06043 169.478 -3.29497 163.552 -0.836859L91.4481 29.0698C89.2406 29.9855 86.7594 29.9855 84.5519 29.0698L12.4481 -0.836859C6.5217 -3.29497 0 1.06043 0 7.4764V46.3639C0 47.2111 0.205497 48.0456 0.595169 48.7978Z" fill="#F4A17C"/>
<path d="M104.252 10.2928C104.252 10.2928 105.314 10.4108 106.223 11.2242C107.132 12.0376 107.971 9.96439 106.466 9.54101C104.964 9.11764 104.252 10.2928 104.252 10.2928Z" fill="#F5E2D5"/>
<path d="M103.242 10.1978C103.242 10.1978 103.936 9.39213 105.125 9.10218C106.313 8.81223 105.049 6.96223 103.853 7.95779C102.659 8.95592 103.242 10.1978 103.242 10.1978Z" fill="#F5E2D5"/>
<path d="M89.3798 15.0139C89.3798 15.0139 88.6418 15.7785 88.4709 16.9819C88.2999 18.1828 86.3138 17.1256 87.1942 15.8453C88.0721 14.5649 89.3798 15.0139 89.3798 15.0139Z" fill="#F5E2D5"/>
<path d="M90.0951 14.3006C90.0951 14.3006 89.0411 14.1235 87.9405 14.6572C86.84 15.1909 86.6121 12.9689 88.1762 12.9714C89.7377 12.974 90.0951 14.3006 90.0951 14.3006Z" fill="#F5E2D5"/>
<path d="M105.404 21.318C107.707 17.558 106.499 12.6593 102.704 10.3763C98.9097 8.09342 93.9657 9.29082 91.6617 13.0508C89.3578 16.8108 90.5662 21.7096 94.3609 23.9925C98.1556 26.2754 103.1 25.078 105.404 21.318Z" fill="#F5E2D5"/>
<path d="M92.3036 15.8272C92.1663 15.8631 92.0187 15.8041 91.9488 15.6758C91.8685 15.527 91.9229 15.3397 92.0757 15.2602L94.0774 14.1902L92.736 14.144C92.5651 14.1389 92.4305 13.9952 92.4356 13.8258C92.4408 13.6565 92.5858 13.5231 92.7568 13.5282L95.2427 13.6129C95.3826 13.618 95.5017 13.7155 95.5353 13.8515C95.5664 13.9875 95.5043 14.126 95.38 14.1928L92.3683 15.8016C92.3476 15.8118 92.3269 15.8195 92.3036 15.8272Z" fill="#3F4553"/>
<path d="M103.019 12.9072C102.996 12.9123 102.973 12.9175 102.947 12.9175L99.6762 13.0201C99.5363 13.0252 99.4095 12.9354 99.368 12.802C99.3266 12.6686 99.381 12.5249 99.5001 12.4505L101.709 11.0854C101.854 10.9956 102.046 11.0393 102.136 11.1829C102.227 11.3266 102.183 11.5165 102.038 11.6063L100.808 12.3658L102.926 12.2991C103.097 12.294 103.242 12.4274 103.247 12.5967C103.25 12.7456 103.154 12.8687 103.019 12.9072Z" fill="#3F4553"/>
<path d="M92.1687 17.213C93.8726 20.3254 96.8972 22.0984 99.6836 21.3389C102.467 20.5794 104.153 17.5209 104.011 13.9851L102.936 14.0954C99.4946 14.4469 96.1463 15.3681 93.0155 16.8204L92.1687 17.213Z" fill="#3F4553"/>
<path d="M103.092 17.9802C101.885 17.5876 100.36 17.5543 98.8035 17.9802C97.2161 18.4138 95.9031 19.2375 95.0719 20.2125C96.4832 21.1183 98.0784 21.4672 99.6036 21.0516C101.147 20.6282 102.349 19.5018 103.092 17.9802Z" fill="#4E5567"/>
<path d="M49.6748 48.2888C50.9058 44.0625 48.4461 39.6477 44.1808 38.4279C39.9156 37.2081 35.46 39.6454 34.2289 43.8717C32.9979 48.0979 35.4577 52.5128 39.7229 53.7325C43.9882 54.9523 48.4438 52.515 49.6748 48.2888Z" fill="#F5E2D5"/>
<path d="M37.8447 41.2449C37.7127 41.191 37.6324 41.055 37.6557 40.9114C37.6842 40.7446 37.8421 40.6291 38.013 40.6573L40.2582 41.0166L39.2224 40.1724C39.0903 40.0646 39.0722 39.8696 39.1809 39.7387C39.2897 39.6079 39.4865 39.5899 39.6186 39.6977L41.54 41.2655C41.6488 41.3527 41.6825 41.5041 41.6255 41.6298C41.5685 41.7555 41.4313 41.8299 41.294 41.8069L37.9146 41.268C37.8887 41.2603 37.8654 41.2552 37.8447 41.2449Z" fill="#3F4553"/>
<path d="M48.141 45.3889C48.1177 45.3787 48.097 45.3684 48.0763 45.353L45.4194 43.4619C45.3055 43.3798 45.2614 43.2336 45.3106 43.1027C45.3598 42.9719 45.4919 42.8923 45.6317 42.9051L48.2213 43.154C48.3922 43.1694 48.5165 43.3208 48.501 43.4902C48.4854 43.6595 48.3327 43.7827 48.1617 43.7673L46.7194 43.6287L48.4414 44.8527C48.5813 44.9527 48.6123 45.1426 48.5113 45.2812C48.4233 45.4018 48.2705 45.4428 48.141 45.3889Z" fill="#3F4553"/>
<path d="M42.9645 49.4275C41.7914 49.4275 40.7453 49.1658 39.8337 48.6449C37.4332 47.2722 36.879 44.6088 36.8557 44.4959C36.8143 44.288 36.9516 44.0853 37.1613 44.0443C37.3711 44.0032 37.5756 44.1392 37.6171 44.347C37.6222 44.3701 38.1324 46.7872 40.2299 47.9829C41.7578 48.8553 43.7569 48.8835 46.173 48.0676C46.3776 47.9983 46.5977 48.1061 46.665 48.3088C46.7349 48.5089 46.6262 48.7296 46.4216 48.7963C45.1708 49.2145 44.0159 49.4275 42.9645 49.4275Z" fill="#3F4553"/>
<path d="M90.447 70.8079C93.8985 67.3879 93.8985 61.8431 90.447 58.4232C86.9955 55.0033 81.3996 55.0033 77.9481 58.4232C74.4966 61.8431 74.4966 67.3879 77.9481 70.8079C81.3996 74.2278 86.9955 74.2278 90.447 70.8079Z" fill="#F5E2D5"/>
<path d="M79.2186 67.4809C79.2186 67.4809 84.9027 64.2658 90.3796 63.4883C90.3796 63.4883 91.9515 68.6201 86.7154 70.6061C82.1759 72.3279 79.2186 67.4809 79.2186 67.4809Z" fill="#3F4553"/>
<path d="M80.3401 65.0074C80.1536 65.0074 79.9723 64.9074 79.8791 64.7303L78.5895 62.2619C78.4574 62.0105 78.5584 61.7 78.8122 61.5692C79.066 61.4383 79.3793 61.5384 79.5114 61.7898L80.801 64.2582C80.9331 64.5097 80.8321 64.8201 80.5783 64.951C80.5006 64.9895 80.4203 65.0074 80.3401 65.0074Z" fill="#3F4553"/>
<path d="M87.2127 62.5364C86.9744 62.5364 86.7595 62.3722 86.7077 62.131L86.1069 59.3214C86.0474 59.0443 86.226 58.7723 86.5057 58.7133C86.7854 58.6543 87.0599 58.8313 87.1194 59.1084L87.7202 61.9181C87.7798 62.1952 87.6011 62.4672 87.3214 62.5262C87.2826 62.5339 87.2463 62.5364 87.2127 62.5364Z" fill="#3F4553"/>
<path d="M88.106 69.5823C87.6295 68.42 85.9644 67.9453 84.3382 68.5252C83.437 68.8485 82.7378 69.4284 82.3571 70.0827C83.5354 70.6703 85.0011 70.9346 86.6843 70.2956C87.2307 70.0904 87.6968 69.8492 88.106 69.5823Z" fill="#4E5567"/>
<path d="M135.328 41.9172C139.813 40.0082 141.887 34.8582 139.961 30.4143C138.034 25.9705 132.836 23.9156 128.352 25.8246C123.867 27.7336 121.793 32.8836 123.719 37.3274C125.646 41.7713 130.844 43.8262 135.328 41.9172Z" fill="#F5E2D5"/>
<path d="M132.967 35.8207C129.914 35.8207 127.596 34.0605 127.563 34.0348C127.451 33.9476 127.431 33.7859 127.519 33.6756C127.607 33.5653 127.77 33.5448 127.881 33.632C128.068 33.7757 132.498 37.1293 137.113 33.9989C137.232 33.9194 137.393 33.9502 137.473 34.0656C137.553 34.1837 137.525 34.3427 137.406 34.4223C135.873 35.4615 134.345 35.8207 132.967 35.8207Z" fill="#3F4553"/>
<path d="M135.487 31.1714C135.487 31.7102 135.275 32.149 135.01 32.149C134.746 32.149 134.534 31.7128 134.534 31.1714C134.534 30.63 134.746 30.1937 135.01 30.1937C135.275 30.1937 135.487 30.6325 135.487 31.1714Z" fill="#3F4553"/>
<path d="M130.911 30.984C130.911 31.5229 130.699 31.9616 130.435 31.9616C130.171 31.9616 129.958 31.5254 129.958 30.984C129.958 30.4452 130.171 30.0064 130.435 30.0064C130.699 30.0064 130.911 30.4426 130.911 30.984Z" fill="#3F4553"/>
<path d="M109.489 94.8773C121.4 94.8773 131.056 92.7152 131.056 90.0482C131.056 87.3813 121.4 85.2192 109.489 85.2192C97.5781 85.2192 87.9221 87.3813 87.9221 90.0482C87.9221 92.7152 97.5781 94.8773 109.489 94.8773Z" fill="#F4A17C"/>
<path opacity="0.5" d="M109.489 94.8773C121.4 94.8773 131.056 92.7152 131.056 90.0482C131.056 87.3813 121.4 85.2192 109.489 85.2192C97.5781 85.2192 87.9221 87.3813 87.9221 90.0482C87.9221 92.7152 97.5781 94.8773 109.489 94.8773Z" fill="#F4A17C"/>
<path d="M107.82 26.2114C107.82 26.2114 106.168 26.0626 106.018 24.5744C105.868 23.0862 109.775 21.2233 112.253 21.1489C114.734 21.0745 117.137 23.7559 117.137 25.9138C117.137 28.0717 117.513 31.1251 119.39 31.7204C121.268 32.3157 122.547 35.9644 121.418 37.3038C120.291 38.6432 120.367 38.6432 121.493 39.8363C122.619 41.0269 121.643 43.1129 120.892 43.5594C120.141 44.0059 117.886 44.6756 112.852 44.2291C107.817 43.7826 104.811 39.241 104.586 37.3782C104.36 35.5179 106.088 34.2503 106.688 33.4318C107.289 32.6133 106.238 31.9436 106.313 31.0481C106.388 30.1552 107.515 29.4111 107.815 28.6644C108.12 27.9229 107.82 26.2114 107.82 26.2114Z" fill="#3F4553"/>
<path d="M115.928 44.5036C115.045 44.5036 114.024 44.46 112.844 44.3548C107.566 43.8853 104.671 39.123 104.461 37.3936C104.277 35.8848 105.313 34.7712 106.067 33.9578C106.279 33.7295 106.46 33.5319 106.59 33.3574C106.893 32.9417 106.709 32.5697 106.497 32.136C106.328 31.7973 106.157 31.4484 106.191 31.0404C106.238 30.4733 106.657 29.9858 107.064 29.5163C107.333 29.2032 107.587 28.9082 107.703 28.6208C107.949 28.0127 107.765 26.6861 107.711 26.3243C107.333 26.2602 106.028 25.9394 105.891 24.5846C105.854 24.2331 106.012 23.8585 106.354 23.471C107.439 22.2471 110.249 21.0771 112.251 21.018C113.382 20.9873 114.592 21.5133 115.586 22.4703C116.624 23.4685 117.269 24.7873 117.269 25.9138C117.269 27.7817 117.551 31.0019 119.434 31.5998C120.421 31.9128 121.335 33.0598 121.765 34.5198C122.117 35.718 122.026 36.7906 121.524 37.3884C120.503 38.5995 120.503 38.5995 121.495 39.6438L121.596 39.749C122.158 40.3418 122.187 41.0859 122.114 41.6042C121.982 42.5484 121.425 43.3952 120.967 43.6697C120.579 43.8955 119.242 44.5036 115.928 44.5036ZM112.352 21.2746C112.32 21.2746 112.289 21.2746 112.256 21.2772C110.347 21.3336 107.571 22.4832 106.546 23.6429C106.251 23.9739 106.116 24.2844 106.144 24.5615C106.282 25.9292 107.815 26.0831 107.83 26.0857C107.89 26.0908 107.936 26.1344 107.947 26.1909C107.96 26.2627 108.25 27.9485 107.939 28.7183C107.807 29.0441 107.54 29.3546 107.258 29.6831C106.88 30.1244 106.486 30.5785 106.447 31.0635C106.419 31.4022 106.577 31.7178 106.727 32.0257C106.957 32.4901 107.193 32.97 106.8 33.5114C106.662 33.6987 106.476 33.9014 106.258 34.1349C105.538 34.9123 104.552 35.9772 104.72 37.3679C104.922 39.0434 107.737 43.6492 112.869 44.1059C118.411 44.5986 120.364 43.7313 120.832 43.4542C121.231 43.2181 121.736 42.4304 121.858 41.5734C121.923 41.109 121.897 40.447 121.407 39.9287L121.309 39.8235C120.242 38.6996 120.19 38.5816 121.33 37.2268C121.778 36.6931 121.85 35.7103 121.521 34.5942C121.19 33.4626 120.392 32.1745 119.361 31.8487C117.321 31.2021 117.018 27.8561 117.018 25.9189C117.018 24.8592 116.404 23.6122 115.415 22.6602C114.488 21.775 113.38 21.2746 112.352 21.2746Z" fill="#3F4553"/>
<path d="M119.804 38.1788C119.758 38.1788 119.729 38.1736 119.721 38.1711C119.652 38.1557 119.608 38.0864 119.623 38.0171C119.639 37.9478 119.708 37.9042 119.778 37.9196C119.781 37.9196 119.905 37.9401 120.061 37.8272C120.26 37.6836 120.524 37.3218 120.656 36.4006C120.827 35.2152 118.932 33.6602 116.927 32.0155C116.036 31.2842 115.115 30.5273 114.307 29.7524C111.629 27.1839 111.251 24.1459 111.246 24.1151C111.238 24.0459 111.29 23.9817 111.36 23.974C111.424 23.9663 111.494 24.0176 111.502 24.0869C111.505 24.1151 111.875 27.0685 114.485 29.5676C115.286 30.3349 116.202 31.0892 117.09 31.8154C119.242 33.5807 121.102 35.1074 120.91 36.434C120.791 37.2576 120.55 37.799 120.193 38.0428C120.035 38.1582 119.89 38.1788 119.804 38.1788Z" fill="#AC9B8F"/>
<path d="M107.033 24.9926C106.194 24.9926 105.927 24.6693 105.914 24.6514C105.87 24.5949 105.88 24.5154 105.937 24.4718C105.992 24.4281 106.075 24.4384 106.119 24.4949C106.121 24.4974 106.554 24.9772 108.151 24.5795C109.829 24.1639 111.538 22.8219 111.554 22.8065C111.611 22.7629 111.691 22.7706 111.735 22.827C111.779 22.8835 111.772 22.963 111.715 23.0066C111.642 23.0631 109.946 24.3974 108.213 24.8259C107.732 24.949 107.343 24.9926 107.033 24.9926Z" fill="#AC9B8F"/>
<path d="M99.9296 87.4387C99.9296 87.4387 101.048 88.8936 102.299 89.5787C103.55 90.2638 105.795 89.7916 105.148 88.1674C104.5 86.5432 103.464 85.6862 102.687 85.3886C101.911 85.0884 99.8907 85.8556 99.9296 87.4387Z" fill="#E49621"/>
<path d="M103.57 90.0122C103.11 90.0122 102.633 89.907 102.237 89.6915C100.976 89.0013 99.8726 87.5772 99.8259 87.5182C99.8104 87.4977 99.8 87.4695 99.8 87.4438C99.7845 86.769 100.121 86.1557 100.753 85.7144C101.39 85.2705 102.242 85.078 102.734 85.2679C103.122 85.4167 104.448 86.0633 105.267 88.1212C105.497 88.6985 105.401 89.2117 104.997 89.5632C104.658 89.8609 104.125 90.0122 103.57 90.0122ZM100.059 87.395C100.233 87.6131 101.253 88.8602 102.361 89.4683C103.133 89.8891 104.285 89.8429 104.829 89.3708C105.15 89.0911 105.217 88.6934 105.028 88.2161C104.249 86.2558 103.003 85.6477 102.641 85.5091C102.281 85.3706 101.532 85.4886 100.903 85.9274C100.585 86.1455 100.059 86.6278 100.059 87.395Z" fill="#3F4553"/>
<path d="M101.522 89.0218L101.535 89.0603C101.778 89.2527 102.035 89.4323 102.299 89.576C103.55 90.2611 105.795 89.789 105.148 88.1648C103.12 86.928 101.522 89.0218 101.522 89.0218Z" fill="#F1BD54"/>
<path d="M103.57 90.0123C103.11 90.0123 102.633 89.9071 102.237 89.6915C101.988 89.5555 101.727 89.3785 101.455 89.163C101.434 89.1476 101.419 89.1245 101.411 89.0988L101.398 89.0578C101.385 89.0193 101.393 88.9757 101.419 88.9423C101.437 88.9218 103.11 86.769 105.215 88.0545C105.238 88.0699 105.256 88.0904 105.267 88.1161C105.497 88.6934 105.401 89.2066 104.997 89.5581C104.658 89.8609 104.125 90.0123 103.57 90.0123ZM101.69 89.0218C101.924 89.2015 102.149 89.3503 102.361 89.4683C103.133 89.8891 104.285 89.8429 104.829 89.3708C105.14 89.0988 105.215 88.7165 105.044 88.2572C103.353 87.2539 101.999 88.6575 101.69 89.0218Z" fill="#3F4553"/>
<path d="M102.299 89.5787C103.472 90.2202 105.518 89.8481 105.235 88.46C104.816 88.9039 103.979 89.4479 102.817 89.0219C101.569 88.5678 100.499 87.3233 100.056 86.7511C99.9734 86.959 99.9216 87.1873 99.9294 87.4388C99.9294 87.4388 101.048 88.8936 102.299 89.5787Z" fill="#F1BD54"/>
<path d="M103.57 90.0097C103.107 90.0097 102.628 89.9045 102.237 89.689C100.975 88.9988 99.8723 87.5747 99.8257 87.5157C99.8102 87.4952 99.7998 87.467 99.7998 87.4413C99.7946 87.1924 99.8387 86.9435 99.9371 86.7023C99.9552 86.6587 99.994 86.6279 100.041 86.6228C100.085 86.6151 100.131 86.6356 100.16 86.6715C100.564 87.1924 101.633 88.4523 102.861 88.9013C104.054 89.3375 104.852 88.6755 105.14 88.3701C105.173 88.3342 105.222 88.3214 105.269 88.3342C105.316 88.3471 105.352 88.3855 105.36 88.4317C105.458 88.9192 105.295 89.3477 104.899 89.6351C104.562 89.8866 104.075 90.0097 103.57 90.0097ZM100.059 87.3951C100.232 87.6132 101.253 88.8602 102.361 89.4683C103.083 89.8635 104.179 89.8481 104.748 89.4324C104.997 89.2528 105.127 89.0193 105.132 88.7371C104.71 89.0963 103.897 89.5556 102.77 89.145C101.613 88.7217 100.6 87.6312 100.103 87.0205C100.074 87.1437 100.059 87.2668 100.059 87.3951Z" fill="#3F4553"/>
<path d="M118.688 87.3849C118.688 87.3849 117.57 88.8397 116.319 89.5248C115.068 90.2099 112.823 89.7378 113.47 88.1136C114.118 86.4894 115.154 85.6324 115.931 85.3347C116.707 85.0345 118.727 85.8017 118.688 87.3849Z" fill="#E49621"/>
<path d="M115.048 89.9585C114.494 89.9585 113.96 89.8045 113.618 89.5069C113.214 89.1553 113.119 88.6447 113.349 88.0648C114.167 86.0096 115.496 85.363 115.882 85.2116C116.374 85.0217 117.226 85.2141 117.863 85.658C118.494 86.0968 118.834 86.7126 118.816 87.3874C118.816 87.4131 118.805 87.4413 118.79 87.4619C118.743 87.5234 117.64 88.9475 116.379 89.6352C115.985 89.8507 115.509 89.9585 115.048 89.9585ZM116.33 85.3963C116.19 85.3963 116.071 85.4143 115.975 85.4502C115.612 85.5888 114.369 86.1994 113.587 88.1572C113.398 88.6345 113.466 89.0322 113.787 89.3119C114.33 89.7866 115.483 89.8302 116.255 89.4094C117.363 88.8038 118.383 87.5568 118.557 87.3387C118.557 86.5715 118.031 86.0891 117.712 85.8684C117.249 85.5451 116.721 85.3963 116.33 85.3963Z" fill="#3F4553"/>
<path d="M117.096 88.9679L117.083 89.0064C116.839 89.1988 116.583 89.3784 116.319 89.5221C115.068 90.2072 112.823 89.7351 113.47 88.1109C115.498 86.8715 117.096 88.9679 117.096 88.9679Z" fill="#F1BD54"/>
<path d="M115.047 89.9585C114.493 89.9585 113.96 89.8045 113.618 89.5069C113.214 89.1554 113.118 88.6447 113.349 88.0648C113.359 88.0392 113.377 88.0161 113.4 88.0033C115.506 86.7177 117.181 88.868 117.197 88.8911C117.223 88.9244 117.23 88.968 117.218 89.0065L117.205 89.045C117.197 89.0707 117.181 89.0912 117.161 89.1066C116.889 89.3221 116.625 89.4992 116.379 89.6352C115.985 89.8507 115.508 89.9585 115.047 89.9585ZM113.574 88.1983C113.403 88.6576 113.478 89.0425 113.789 89.3119C114.333 89.7866 115.485 89.8302 116.257 89.4094C116.469 89.2939 116.694 89.1451 116.928 88.9629C116.617 88.6011 115.262 87.2001 113.574 88.1983Z" fill="#3F4553"/>
<path d="M116.319 89.5247C115.146 90.1662 113.1 89.7942 113.382 88.406C113.802 88.8499 114.638 89.3939 115.801 88.968C117.049 88.5138 118.119 87.2693 118.562 86.6971C118.644 86.905 118.696 87.1333 118.689 87.3848C118.689 87.3848 117.57 88.8397 116.319 89.5247Z" fill="#F1BD54"/>
<path d="M115.048 89.956C114.543 89.956 114.056 89.8302 113.714 89.5839C113.318 89.2965 113.155 88.868 113.253 88.3805C113.263 88.3343 113.297 88.2958 113.344 88.283C113.39 88.2702 113.442 88.283 113.473 88.3189C113.761 88.6243 114.558 89.2837 115.752 88.8501C116.979 88.401 118.052 87.1412 118.453 86.6203C118.481 86.5844 118.528 86.5664 118.572 86.5716C118.619 86.5767 118.657 86.6075 118.676 86.6511C118.771 86.8923 118.818 87.1412 118.813 87.3901C118.813 87.4183 118.802 87.444 118.787 87.4645C118.74 87.5261 117.637 88.9501 116.376 89.6378C115.99 89.8508 115.511 89.956 115.048 89.956ZM113.484 88.6807C113.491 88.963 113.618 89.1965 113.867 89.3761C114.436 89.7918 115.532 89.8072 116.254 89.412C117.363 88.8064 118.383 87.5594 118.556 87.3413C118.556 87.2156 118.541 87.0899 118.51 86.9667C118.013 87.5748 117 88.6679 115.843 89.0913C114.719 89.4992 113.906 89.0399 113.484 88.6807Z" fill="#3F4553"/>
<path d="M109.923 31.6178C109.923 31.6178 109.622 34.076 109.397 34.5968C109.172 35.1177 106.391 35.2665 105.189 35.713C103.987 36.1595 101.432 38.3199 99.8545 39.8082C98.2775 41.2964 96.8481 45.2427 96.8481 45.7636C96.8481 46.2845 98.4251 44.2754 99.8545 42.859C101.281 41.4452 104.438 39.6568 104.438 39.6568C104.438 39.6568 105.567 45.1965 105.717 45.7944C105.868 46.3897 105.715 47.3827 105.715 47.6059C105.715 47.8291 102.558 53.2637 102.032 57.8053C101.507 62.347 102.483 70.9837 102.483 70.9837C102.483 70.9837 100.756 74.3348 100.606 78.0579C100.455 81.781 99.6292 86.1738 99.7043 86.4715C99.7794 86.7691 99.5541 87.3644 99.9296 87.4388C100.305 87.5132 100.606 86.4715 101.507 86.2482C102.408 86.025 103.609 86.6203 103.762 86.025C103.912 85.4297 103.762 84.2391 103.912 82.674C104.063 81.1113 106.543 74.7069 106.694 72.5489C106.844 70.391 108.646 59.817 109.024 59.2961C109.4 58.7752 109.4 58.7752 109.4 58.7752C109.4 58.7752 109.775 57.8823 110 58.8496C110.226 59.817 110 69.4211 110.451 70.8375C110.902 72.2513 114.452 81.7502 114.902 82.8664C115.353 83.9826 114.377 85.3245 114.677 85.9198C114.978 86.5151 115.804 86.2919 116.555 86.2919C117.306 86.2919 118.088 87.3849 118.688 87.3849C119.289 87.3849 119.486 86.5151 119.486 85.5477C119.486 84.5804 116.837 75.1559 116.687 72.8466C116.537 70.5373 116.011 68.7514 116.011 68.7514C116.011 68.7514 116.987 58.1055 116.762 55.7962C116.537 53.4869 114.584 47.6059 114.584 47.6059L115.936 40.2546C115.936 40.2546 120.069 42.5639 121.496 44.4242C122.922 46.2845 123.901 46.2101 123.748 44.7218C123.598 43.2336 120.066 38.8408 118.189 36.9036C116.311 34.9689 113.755 35.3409 113.004 34.8201C112.253 34.2992 112.704 29.1623 112.704 29.1623L109.923 31.6178Z" fill="#FED9CE"/>
<path d="M99.9711 87.5721C99.9504 87.5721 99.9271 87.5696 99.9063 87.5644C99.5438 87.4926 99.5671 87.1077 99.5852 86.828C99.593 86.7074 99.6008 86.5817 99.5801 86.5022C99.549 86.3816 99.6008 85.9813 99.7717 84.7702C100.015 83.0433 100.383 80.4338 100.479 78.0527C100.621 74.5477 102.17 71.33 102.353 70.9606C102.284 70.3319 101.403 62.1416 101.905 57.7924C102.328 54.1463 104.459 49.8792 105.262 48.273C105.43 47.9368 105.575 47.6469 105.588 47.5904C105.585 47.5519 105.596 47.4519 105.606 47.321C105.642 46.9233 105.702 46.2613 105.593 45.8277C105.458 45.2888 104.544 40.8242 104.347 39.862C103.697 40.2417 101.165 41.7453 99.9452 42.9539C99.448 43.4465 98.9301 44.0161 98.4717 44.5191C97.3349 45.7661 97.0475 46.0483 96.8377 45.9688C96.7937 45.9508 96.7186 45.9046 96.7186 45.7686C96.7186 45.1836 98.161 41.2321 99.7639 39.7183C101.048 38.5072 103.824 36.085 105.142 35.5975C105.65 35.4101 106.419 35.2742 107.165 35.1433C108.058 34.9868 109.172 34.7918 109.275 34.5506C109.49 34.0528 109.788 31.6332 109.791 31.6075C109.793 31.5767 109.809 31.5485 109.832 31.5279L112.613 29.0698C112.652 29.0339 112.712 29.0288 112.758 29.0519C112.805 29.075 112.833 29.1263 112.828 29.1776C112.657 31.1354 112.572 34.371 113.074 34.7199C113.3 34.8764 113.748 34.9508 114.268 35.0381C115.418 35.2305 116.99 35.4948 118.277 36.8214C120.146 38.7484 123.715 43.1566 123.873 44.7141C123.961 45.5942 123.655 45.8507 123.464 45.9252C122.974 46.1176 122.236 45.6121 121.387 44.5062C120.149 42.8923 116.793 40.9037 116.024 40.4624L114.711 47.6033C114.882 48.1164 116.669 53.5561 116.886 55.791C117.106 58.0516 116.2 68.0508 116.138 68.7462C116.2 68.9669 116.671 70.6911 116.811 72.8439C116.896 74.1474 117.811 77.8474 118.546 80.8213C119.139 83.223 119.61 85.1217 119.61 85.5528C119.61 86.8203 119.281 87.5182 118.683 87.5182C118.357 87.5182 118.015 87.2617 117.655 86.9922C117.285 86.7151 116.902 86.4252 116.549 86.4252C116.389 86.4252 116.223 86.4354 116.063 86.4457C115.457 86.4842 114.83 86.5227 114.556 85.9813C114.4 85.6759 114.522 85.25 114.662 84.7574C114.827 84.1698 115.014 83.5052 114.778 82.9202C114.322 81.7912 110.783 72.3179 110.324 70.881C110.055 70.0317 110.024 66.4497 109.995 63.2885C109.977 61.2204 109.962 59.2704 109.871 58.8829C109.796 58.5647 109.723 58.5314 109.723 58.5314C109.682 58.5391 109.576 58.6879 109.516 58.829C109.514 58.8393 109.508 58.847 109.503 58.8547L109.128 59.3756C108.796 59.8349 106.989 70.1857 106.823 72.5617C106.738 73.7728 105.93 76.3079 105.215 78.5453C104.645 80.3261 104.109 82.0093 104.042 82.6918C103.967 83.4667 103.967 84.1595 103.967 84.7189C103.967 85.2936 103.967 85.7504 103.889 86.0634C103.775 86.5176 103.252 86.4534 102.698 86.3867C102.322 86.3405 101.898 86.2892 101.54 86.379C101.077 86.4945 100.779 86.8537 100.538 87.1436C100.347 87.3694 100.181 87.5721 99.9711 87.5721ZM104.438 39.531C104.456 39.531 104.474 39.5335 104.492 39.5412C104.531 39.5592 104.557 39.5925 104.565 39.6336C104.575 39.69 105.697 45.1785 105.844 45.7635C105.963 46.2382 105.901 46.9284 105.865 47.3415C105.855 47.4621 105.844 47.5545 105.844 47.6058C105.844 47.6751 105.795 47.7777 105.492 48.3859C104.694 49.9818 102.579 54.2181 102.162 57.8206C101.644 62.2955 102.602 70.8836 102.612 70.9708C102.615 70.9965 102.61 71.0221 102.599 71.0427C102.581 71.076 100.883 74.4117 100.735 78.063C100.639 80.4569 100.271 83.0741 100.028 84.8061C99.9115 85.6272 99.8131 86.3354 99.8313 86.4431C99.8597 86.5586 99.852 86.7049 99.8416 86.8434C99.8235 87.1539 99.8338 87.2899 99.9556 87.313C100.046 87.3284 100.194 87.1488 100.339 86.9743C100.587 86.6715 100.929 86.2584 101.478 86.1224C101.885 86.0223 102.333 86.0762 102.729 86.125C103.257 86.1891 103.581 86.2148 103.638 85.9941C103.71 85.7119 103.71 85.2705 103.71 84.7137C103.71 84.1518 103.71 83.4513 103.786 82.6636C103.853 81.9528 104.371 80.3363 104.969 78.4632C105.678 76.2412 106.484 73.7215 106.567 72.5411C106.696 70.6732 108.486 59.8246 108.921 59.2216L109.288 58.711C109.343 58.5853 109.508 58.2543 109.752 58.2697C109.98 58.2876 110.076 58.593 110.127 58.8188C110.223 59.2319 110.239 61.0177 110.259 63.2783C110.285 66.265 110.316 69.983 110.575 70.7938C111.034 72.2281 114.568 81.6885 115.024 82.815C115.294 83.4821 115.084 84.2211 114.918 84.8164C114.799 85.2397 114.685 85.64 114.796 85.8581C114.993 86.2481 115.485 86.2173 116.055 86.1814C116.223 86.1712 116.392 86.1609 116.56 86.1609C117 86.1609 117.417 86.4765 117.821 86.7793C118.145 87.023 118.453 87.254 118.691 87.254C119.294 87.254 119.359 86.0583 119.359 85.5451C119.359 85.1448 118.846 83.069 118.303 80.8752C117.526 77.7371 116.648 74.1808 116.56 72.8542C116.412 70.5885 115.894 68.8052 115.889 68.7872C115.884 68.7719 115.884 68.7565 115.884 68.7411C115.894 68.6333 116.858 58.0798 116.635 55.809C116.415 53.5407 114.48 47.7059 114.462 47.6469C114.455 47.6263 114.455 47.6058 114.457 47.5827L115.809 40.2314C115.817 40.1904 115.843 40.157 115.881 40.1391C115.92 40.1211 115.964 40.1237 116 40.1442C116.171 40.2391 120.172 42.4869 121.602 44.3471C122.485 45.4992 123.109 45.7866 123.376 45.6814C123.585 45.5993 123.676 45.2555 123.624 44.7346C123.474 43.2566 119.895 38.8459 118.101 36.9933C116.873 35.7283 115.348 35.4717 114.234 35.2844C113.66 35.1869 113.206 35.1125 112.934 34.9226C112.233 34.4351 112.461 30.6735 112.554 29.4675L110.052 31.6793C110.008 32.036 109.739 34.1477 109.524 34.6455C109.371 34.997 108.548 35.1587 107.219 35.3896C106.486 35.5179 105.725 35.6513 105.241 35.8309C104.13 36.2441 101.719 38.2301 99.9504 39.8979C98.4458 41.3168 97.1252 44.9219 96.9957 45.666C97.2391 45.4864 97.7907 44.8834 98.2853 44.3394C98.7462 43.834 99.2667 43.2618 99.7691 42.7666C101.193 41.3553 104.252 39.6182 104.381 39.5438C104.394 39.5361 104.417 39.531 104.438 39.531Z" fill="#3F4553"/>
<path d="M114.674 85.9198C114.975 86.5151 115.801 86.2919 116.552 86.2919C117.303 86.2919 118.085 87.3849 118.685 87.3849C119.286 87.3849 119.483 86.5151 119.483 85.5478C119.483 84.5804 116.834 75.1559 116.684 72.8466C116.533 70.5373 116.008 68.7514 116.008 68.7514C116.008 68.7514 116.984 58.1056 116.759 55.7963C116.722 55.4293 116.642 54.9701 116.533 54.462L103.226 53.1791C102.677 54.6698 102.208 56.2889 102.032 57.8079C101.506 62.3496 102.482 70.9863 102.482 70.9863C102.482 70.9863 100.755 74.3374 100.605 78.0605C100.455 81.7836 99.6288 86.1764 99.7039 86.474C99.779 86.7717 99.5537 87.367 99.9292 87.4414C100.305 87.5158 100.605 86.474 101.506 86.2508C102.407 86.0276 103.609 86.6229 103.762 86.0276C103.912 85.4323 103.762 84.2417 103.912 82.6765C104.062 81.1139 106.543 74.7094 106.693 72.5515C106.843 70.3936 108.646 59.8196 109.024 59.2987C109.399 58.7778 109.399 58.7778 109.399 58.7778C109.399 58.7778 109.775 57.8849 110 58.8522C110.225 59.8196 110 69.4237 110.451 70.8401C110.901 72.2539 114.451 81.7528 114.902 82.869C115.353 83.9826 114.374 85.3245 114.674 85.9198Z" fill="#3F4553"/>
<path d="M99.9709 87.5722C99.9502 87.5722 99.9269 87.5696 99.9061 87.5645C99.5436 87.4926 99.5669 87.1077 99.585 86.8281C99.5928 86.7075 99.6006 86.5817 99.5799 86.5022C99.5488 86.3816 99.6006 85.9813 99.7715 84.7702C100.015 83.0434 100.383 80.4339 100.478 78.0527C100.621 74.5477 102.169 71.3301 102.353 70.9606C102.283 70.3319 101.403 62.1416 101.905 57.7924C102.061 56.4453 102.465 54.8776 103.107 53.1328C103.128 53.0789 103.179 53.0455 103.242 53.0481L116.549 54.3311C116.606 54.3362 116.653 54.3772 116.663 54.4311C116.78 54.9751 116.855 55.4293 116.891 55.7808C117.111 58.0413 116.205 68.0406 116.143 68.736C116.205 68.9566 116.676 70.6809 116.816 72.8337C116.901 74.1372 117.816 77.8372 118.551 80.8111C119.144 83.2127 119.615 85.1115 119.615 85.5426C119.615 86.8101 119.286 87.508 118.688 87.508C118.362 87.508 118.02 87.2514 117.66 86.982C117.29 86.7049 116.907 86.415 116.554 86.415C116.394 86.415 116.228 86.4252 116.068 86.4355C115.462 86.474 114.835 86.5125 114.56 85.9711C114.405 85.6657 114.527 85.2398 114.667 84.7471C114.832 84.1595 115.019 83.495 114.783 82.9099C114.327 81.781 110.787 72.3077 110.329 70.8708C110.06 70.0215 110.029 66.4395 110 63.2783C109.982 61.2102 109.967 59.2601 109.876 58.8727C109.801 58.5545 109.728 58.5212 109.728 58.5212C109.687 58.5289 109.581 58.6777 109.521 58.8188C109.519 58.8291 109.513 58.8368 109.508 58.8445L109.133 59.3653C108.801 59.8246 106.994 70.1754 106.828 72.5514C106.743 73.7625 105.935 76.2976 105.22 78.5351C104.65 80.3158 104.114 81.9991 104.047 82.6816C103.972 83.4565 103.972 84.1493 103.972 84.7086C103.972 85.2834 103.972 85.7376 103.894 86.0532C103.78 86.5073 103.257 86.4432 102.703 86.3765C102.327 86.3303 101.903 86.279 101.545 86.3688C101.082 86.4842 100.784 86.8435 100.543 87.1334C100.346 87.3695 100.181 87.5722 99.9709 87.5722ZM103.317 53.315C102.703 55.0033 102.314 56.5198 102.162 57.8207C101.644 62.2956 102.602 70.8836 102.612 70.9709C102.615 70.9965 102.61 71.0222 102.599 71.0427C102.581 71.0761 100.882 74.4117 100.735 78.063C100.639 80.457 100.271 83.0742 100.028 84.8061C99.9113 85.6272 99.8129 86.3354 99.8311 86.4432C99.8595 86.5586 99.8518 86.7049 99.8414 86.8435C99.8233 87.1539 99.8336 87.2899 99.9554 87.313C100.046 87.3284 100.194 87.1488 100.339 86.9743C100.587 86.6715 100.929 86.2584 101.478 86.1224C101.885 86.0224 102.333 86.0763 102.729 86.125C103.257 86.1892 103.581 86.2148 103.638 85.9942C103.71 85.7119 103.71 85.2706 103.71 84.7138C103.71 84.1518 103.71 83.4514 103.785 82.6636C103.853 81.9529 104.371 80.3364 104.969 78.4633C105.678 76.2412 106.484 73.7215 106.566 72.5412C106.696 70.6732 108.485 59.8246 108.92 59.2216L109.288 58.711C109.343 58.5853 109.508 58.2543 109.752 58.2697C109.98 58.2877 110.075 58.593 110.127 58.8188C110.223 59.2319 110.238 61.0178 110.259 63.2783C110.285 66.265 110.316 69.983 110.575 70.7938C111.033 72.2281 114.568 81.6886 115.024 82.815C115.293 83.4821 115.084 84.2211 114.918 84.8164C114.799 85.2398 114.685 85.6401 114.796 85.8582C114.993 86.2482 115.485 86.2174 116.055 86.1815C116.223 86.1712 116.391 86.1609 116.56 86.1609C117 86.1609 117.417 86.4765 117.821 86.7793C118.144 87.0231 118.453 87.254 118.691 87.254C119.294 87.254 119.359 86.0583 119.359 85.5451C119.359 85.1448 118.846 83.069 118.302 80.8752C117.526 77.7371 116.648 74.1808 116.56 72.8542C116.412 70.586 115.894 68.8052 115.889 68.7873C115.884 68.7719 115.884 68.7565 115.884 68.7411C115.894 68.6333 116.857 58.0798 116.635 55.809C116.604 55.4857 116.536 55.0726 116.433 54.5799L103.317 53.315Z" fill="#3F4553"/>
<path d="M118.189 36.906C116.311 34.9713 113.755 35.3434 113.004 34.8225C112.455 34.4428 112.548 31.6074 112.637 30.1013L112.152 29.6497L109.923 31.6203C109.923 31.6203 109.622 34.0784 109.397 34.5993C109.172 35.1202 106.391 35.269 105.189 35.7154C104.006 36.1542 101.517 38.2505 99.9347 39.7336L101.491 41.5349C102.902 40.529 104.438 39.6618 104.438 39.6618C104.438 39.6618 105.567 45.2015 105.717 45.7994C105.867 46.3947 105.715 47.3877 105.715 47.6109C105.715 47.7751 103.993 50.7849 102.882 54.1745C105.036 55.1572 109.278 56.2734 116.707 55.3856C116.324 52.8607 114.581 47.6083 114.581 47.6083L115.933 40.2571C115.933 40.2571 117.233 40.9832 118.626 41.948L120.776 39.8901C119.859 38.7355 118.903 37.6424 118.189 36.906Z" fill="#9776A5"/>
<path d="M111.588 55.8372C107.289 55.8372 104.521 55.0598 102.83 54.2874C102.77 54.2592 102.742 54.1925 102.76 54.1309C103.57 51.66 104.712 49.3712 105.261 48.273C105.43 47.9369 105.575 47.6444 105.588 47.5879C105.585 47.5494 105.595 47.4493 105.606 47.3185C105.642 46.9208 105.702 46.2588 105.593 45.8251C105.458 45.2863 104.544 40.8216 104.347 39.8594C103.923 40.1058 102.7 40.8319 101.569 41.635C101.514 41.6735 101.439 41.6658 101.395 41.6145L99.8389 39.8158C99.7948 39.7645 99.7974 39.6875 99.8492 39.6388C101.211 38.361 103.858 36.0696 105.147 35.5924C105.655 35.4051 106.424 35.2691 107.17 35.1382C108.063 34.9817 109.177 34.7867 109.28 34.5455C109.495 34.0477 109.793 31.6255 109.796 31.6024C109.798 31.5716 109.814 31.5434 109.837 31.5229L112.067 29.5523C112.116 29.5086 112.194 29.5086 112.243 29.5548L112.727 30.0064C112.756 30.0321 112.771 30.0706 112.769 30.1065C112.582 33.2163 112.807 34.5275 113.082 34.7148C113.307 34.8713 113.755 34.9458 114.276 35.033C115.425 35.2254 116.997 35.4897 118.284 36.8163C119.033 37.5861 120.001 38.7048 120.879 39.8107C120.921 39.862 120.915 39.9364 120.869 39.9826L118.719 42.0404C118.675 42.0841 118.605 42.0892 118.556 42.0533C117.463 41.2963 116.42 40.6831 116.031 40.4599L114.719 47.6007C114.864 48.0395 116.477 52.9609 116.839 55.3677C116.845 55.401 116.837 55.437 116.813 55.4652C116.79 55.4934 116.762 55.5114 116.725 55.5139C114.809 55.7397 113.103 55.8372 111.588 55.8372ZM103.042 54.1027C105.308 55.1085 109.469 56.1015 116.56 55.2727C116.145 52.7402 114.478 47.6982 114.46 47.6469C114.452 47.6264 114.452 47.6059 114.454 47.5828L115.806 40.2315C115.814 40.1904 115.84 40.1571 115.879 40.1391C115.917 40.1212 115.961 40.1237 115.998 40.1443C116.011 40.1519 117.264 40.8524 118.613 41.7813L120.602 39.8774C119.75 38.81 118.818 37.7374 118.095 36.9933C116.868 35.7284 115.343 35.4718 114.229 35.2845C113.654 35.1869 113.201 35.1125 112.929 34.9227C112.481 34.6122 112.336 33.0059 112.504 30.1475L112.152 29.8165L110.047 31.6768C110.003 32.0335 109.734 34.1452 109.519 34.643C109.366 34.9945 108.542 35.1562 107.214 35.3871C106.481 35.5154 105.72 35.6488 105.236 35.8284C104.166 36.2261 101.854 38.1146 100.113 39.7363L101.514 41.3554C102.889 40.3854 104.36 39.5515 104.373 39.5438C104.409 39.5233 104.453 39.5207 104.492 39.5387C104.531 39.5567 104.557 39.59 104.565 39.6311C104.575 39.6875 105.696 45.176 105.844 45.761C105.963 46.2357 105.901 46.9259 105.865 47.339C105.854 47.4596 105.844 47.552 105.844 47.6033C105.844 47.6726 105.795 47.7752 105.492 48.3833C104.956 49.4661 103.845 51.6908 103.042 54.1027Z" fill="#3F4553"/>
<path d="M114.53 35.2072C113.849 35.0892 113.294 35.0199 113.004 34.8198C112.455 34.44 112.549 31.6047 112.637 30.0986L112.152 29.647L109.923 31.6176C109.923 31.6176 109.622 34.0757 109.397 34.5966C109.309 34.7967 108.84 34.943 108.232 35.0712C108.732 36.5595 109.83 39.2229 111.272 39.2229C112.676 39.2254 113.913 36.716 114.53 35.2072Z" fill="#FED9CE"/>
<path d="M111.272 39.3539C109.757 39.3539 108.641 36.6982 108.108 35.1125C108.097 35.0766 108.1 35.0406 108.118 35.0073C108.136 34.9765 108.167 34.9534 108.203 34.9457C109.024 34.7738 109.239 34.6327 109.278 34.5454C109.493 34.0476 109.791 31.6254 109.793 31.6024C109.796 31.5716 109.812 31.5433 109.835 31.5228L112.064 29.5522C112.114 29.5086 112.191 29.5086 112.241 29.5548L112.725 30.0064C112.753 30.032 112.769 30.0705 112.766 30.1064C112.58 33.2163 112.805 34.5275 113.08 34.7148C113.305 34.8713 113.755 34.9457 114.276 35.0329L114.55 35.0791C114.589 35.0868 114.623 35.1099 114.641 35.1433C114.659 35.1766 114.662 35.2177 114.649 35.2536C113.885 37.1241 112.678 39.3539 111.272 39.3539ZM108.4 35.1664C108.843 36.4493 109.92 39.0947 111.272 39.0947C112.554 39.0947 113.727 36.7854 114.348 35.3049L114.234 35.2844C113.66 35.1869 113.204 35.1125 112.932 34.9226C112.484 34.6121 112.339 33.0059 112.507 30.1475L112.155 29.8165L110.05 31.6768C110.006 32.0334 109.736 34.1451 109.521 34.6429C109.426 34.8559 109.099 35.0099 108.4 35.1664Z" fill="#3F4553"/>
<path d="M112.621 30.3705C112.344 30.3885 112.038 30.4578 111.823 30.5117C111.513 30.5886 110.912 30.9145 110.34 31.2506L109.925 31.6176C109.925 31.6176 109.804 32.6183 109.656 33.4778C110.174 33.2931 111.678 32.7106 112.574 31.8639C112.577 31.3353 112.598 30.8144 112.621 30.3705Z" fill="#C6FF00"/>
<path d="M112.621 30.3705C112.344 30.3885 112.038 30.4578 111.823 30.5117C111.513 30.5886 110.912 30.9145 110.34 31.2506L109.925 31.6176C109.925 31.6176 109.804 32.6183 109.656 33.4778C110.174 33.2931 111.678 32.7106 112.574 31.8639C112.577 31.3353 112.598 30.8144 112.621 30.3705Z" fill="#BFB2AA"/>
<path d="M109.695 68.5717C117.92 68.5717 124.588 61.965 124.588 53.8153C124.588 45.6655 117.92 39.0589 109.695 39.0589C101.47 39.0589 94.8023 45.6655 94.8023 53.8153C94.8023 61.965 101.47 68.5717 109.695 68.5717Z" fill="#FA6E5A"/>
<path d="M114.592 66.0828C106.367 66.0828 99.6989 59.4756 99.6989 51.3264C99.6989 46.582 101.962 42.3637 105.474 39.6644C99.3053 41.4682 94.802 47.1183 94.802 53.8153C94.802 61.9645 101.47 68.5717 109.695 68.5717C113.131 68.5717 116.293 67.4145 118.812 65.4798C117.474 65.8698 116.057 66.0828 114.592 66.0828Z" fill="#E3604D"/>
<path d="M99.2456 48.3552C98.9841 48.3552 98.7458 48.1756 98.6863 47.9138C98.6138 47.6059 98.808 47.3006 99.1187 47.2313L103.226 46.2948L100.854 45.5609C100.551 45.466 100.382 45.1478 100.476 44.8476C100.569 44.5474 100.893 44.3806 101.196 44.473L105.595 45.8355C105.844 45.9124 106.01 46.1434 105.999 46.4025C105.989 46.6591 105.808 46.8772 105.554 46.9362L99.3751 48.3449C99.3311 48.3526 99.287 48.3552 99.2456 48.3552Z" fill="#3F4553"/>
<path d="M119.833 48.3553C119.789 48.3553 119.742 48.3501 119.698 48.3399L113.807 46.9312C113.553 46.8696 113.374 46.649 113.367 46.3924C113.359 46.1358 113.527 45.9048 113.778 45.8304L118.401 44.4679C118.706 44.3781 119.025 44.5501 119.115 44.8528C119.206 45.1556 119.033 45.4712 118.73 45.561L116.156 46.3205L119.97 47.2314C120.278 47.3058 120.47 47.6137 120.395 47.9191C120.327 48.1808 120.092 48.3553 119.833 48.3553Z" fill="#3F4553"/>
<path d="M98.3186 50.7672C99.8205 57.1563 104.345 61.798 109.695 61.798C115.045 61.798 119.571 57.1563 121.07 50.7672L119.095 50.4413C112.774 49.3944 106.336 49.4073 100.02 50.4798L98.3186 50.7672Z" fill="#3F4553"/>
<path d="M117.45 57.4538C115.488 56.1632 112.781 55.3652 109.788 55.3652C106.737 55.3652 103.985 56.1991 102.014 57.5334C104.088 59.8401 106.766 61.2385 109.695 61.2385C112.66 61.2385 115.366 59.8093 117.45 57.4538Z" fill="#4E5567"/>
<path d="M107.745 25.3904C107.745 25.3904 107.219 26.953 106.769 27.8485C106.318 28.7414 106.994 31.4972 107.52 32.3157C108.045 33.1342 109.022 32.9854 109.397 32.911C109.773 32.8366 111.425 31.7948 112.028 31.1995C112.629 30.6042 112.929 30.3066 112.929 30.3066C112.929 30.3066 113.23 30.3066 113.53 29.7113C113.83 29.116 112.629 27.7766 111.577 26.137C110.526 24.5 110.076 24.5744 110.076 24.5744L107.745 25.3904Z" fill="#FED9CE"/>
<path d="M108.833 33.0983C108.053 33.0983 107.634 32.7288 107.411 32.3824C106.87 31.5382 106.173 28.7414 106.652 27.7894C107.095 26.9145 107.618 25.3647 107.623 25.3493C107.636 25.3108 107.665 25.2826 107.704 25.2697L110.034 24.4512C110.143 24.4332 110.645 24.4409 111.689 26.0677C111.969 26.5039 112.256 26.9119 112.533 27.307C113.331 28.4437 113.906 29.2648 113.649 29.7677C113.39 30.2809 113.116 30.3989 112.994 30.4272L112.121 31.2919C111.505 31.9026 109.827 32.9597 109.426 33.0392C109.206 33.0803 109.009 33.0983 108.833 33.0983ZM107.849 25.4904C107.748 25.788 107.289 27.1018 106.885 27.9049C106.455 28.7542 107.139 31.4843 107.631 32.2464C107.965 32.7673 108.553 32.9469 109.376 32.7852C109.7 32.7211 111.337 31.705 111.94 31.1071L112.841 30.2142C112.865 30.1911 112.898 30.1757 112.932 30.1757C112.929 30.1757 113.165 30.15 113.416 29.6523C113.603 29.2853 113.007 28.436 112.318 27.4533C112.041 27.0556 111.754 26.645 111.469 26.2063C110.599 24.8515 110.166 24.7155 110.096 24.7027L107.849 25.4904Z" fill="#3F4553"/>
<path d="M108.273 29.1032C108.257 29.1032 108.242 29.1007 108.226 29.0955C107.442 28.7953 107.512 28.5926 107.532 28.5285C107.584 28.372 108.188 27.4893 108.371 27.2224C108.413 27.1634 108.493 27.148 108.55 27.1891C108.61 27.2301 108.625 27.3097 108.584 27.3661C108.239 27.8665 107.869 28.4258 107.789 28.5798C107.853 28.6465 108.084 28.7671 108.317 28.8569C108.384 28.8826 108.418 28.957 108.392 29.0237C108.374 29.0699 108.325 29.1032 108.273 29.1032Z" fill="#3F4553"/>
<path d="M110.896 27.9305C110.847 27.9305 110.8 27.9023 110.78 27.8561C110.661 27.6046 110.505 27.4456 110.316 27.3814C110.062 27.2967 109.827 27.4071 109.824 27.4071C109.759 27.4379 109.682 27.4122 109.651 27.3506C109.62 27.2865 109.646 27.2095 109.708 27.1787C109.721 27.171 110.042 27.0171 110.402 27.1402C110.658 27.2275 110.865 27.4327 111.015 27.7483C111.046 27.8125 111.018 27.8895 110.953 27.9202C110.933 27.9254 110.914 27.9305 110.896 27.9305Z" fill="#3F4553"/>
<path d="M108.118 27.2172C108.076 27.2172 108.037 27.1993 108.012 27.1634C108.009 27.1582 107.887 26.9966 107.706 26.9761C107.589 26.9632 107.46 27.0171 107.328 27.1326C107.274 27.1788 107.193 27.1762 107.144 27.1223C107.097 27.0684 107.1 26.9889 107.154 26.9401C107.343 26.7708 107.538 26.6989 107.737 26.7195C108.035 26.7528 108.216 27.0017 108.221 27.012C108.263 27.071 108.247 27.1505 108.19 27.1916C108.17 27.2095 108.144 27.2172 108.118 27.2172Z" fill="#3F4553"/>
<path d="M111.308 27.1146C111.254 27.1146 111.205 27.0812 111.187 27.0273C110.824 25.9907 110.184 26.1344 110.159 26.1421C110.089 26.1575 110.019 26.119 110.001 26.0497C109.983 25.9804 110.024 25.9112 110.091 25.8932C110.099 25.8906 110.985 25.6725 111.43 26.9427C111.453 27.0094 111.417 27.0838 111.35 27.1069C111.337 27.112 111.321 27.1146 111.308 27.1146Z" fill="#3F4553"/>
<path d="M107.501 26.6039C107.48 26.6039 107.462 26.5987 107.444 26.591C107.379 26.5602 107.354 26.4833 107.387 26.4191C107.532 26.1292 107.726 25.9573 107.965 25.9034C108.327 25.8213 108.648 26.0599 108.661 26.0702C108.718 26.1138 108.729 26.1933 108.685 26.2498C108.641 26.3062 108.56 26.3165 108.503 26.2729C108.501 26.2703 108.262 26.0958 108.019 26.1523C107.861 26.1882 107.726 26.3165 107.618 26.532C107.594 26.5782 107.548 26.6039 107.501 26.6039Z" fill="#3F4553"/>
<path d="M107.81 29.6882C107.81 29.6882 108.734 30.0448 109.918 29.3828C109.918 29.3828 109.301 30.2988 108.581 30.4015C107.861 30.5016 107.81 29.6882 107.81 29.6882Z" fill="#3F4553"/>
<path d="M99.4428 40.2827C99.4428 40.2827 96.1877 42.9897 95.6672 44.7319C95.1467 46.4742 95.5378 50.4718 95.473 51.6958C95.4083 52.9197 96.2551 54.2745 96.6435 54.5336C97.0345 54.7928 97.0993 54.3412 97.0345 53.8896C96.9698 53.438 96.9698 51.1159 96.9698 51.1159C96.9698 51.1159 97.555 52.7914 97.6198 52.4707C97.6845 52.1474 97.6845 51.5675 97.4256 50.6643C97.1666 49.7611 96.514 48.473 96.5788 48.2138C96.6435 47.9547 98.7255 44.0879 99.0518 42.8614" fill="#FED9CE"/>
<path d="M96.8428 54.7365C96.7703 54.7365 96.6797 54.7108 96.5709 54.639C96.1618 54.3696 95.2736 52.9737 95.3409 51.6882C95.359 51.3239 95.3383 50.7004 95.3124 49.9768C95.2528 48.2705 95.17 45.9329 95.5403 44.6962C96.066 42.9385 99.2201 40.2957 99.3547 40.1853C99.4091 40.1392 99.492 40.1469 99.536 40.2007C99.5826 40.2546 99.5748 40.3367 99.5205 40.3803C99.4894 40.406 96.2913 43.0848 95.7863 44.768C95.4289 45.9663 95.5092 48.2782 95.5688 49.9691C95.5947 50.6978 95.6154 51.329 95.5973 51.7036C95.5351 52.8788 96.3508 54.19 96.7108 54.4286C96.7859 54.4773 96.8377 54.4876 96.8532 54.4799C96.9024 54.4491 96.9516 54.2515 96.9024 53.9103C96.8377 53.4561 96.8351 51.2161 96.8351 51.1186C96.8351 51.057 96.8817 51.0031 96.9438 50.9929C97.006 50.9826 97.0681 51.0185 97.0889 51.0775C97.2261 51.4727 97.3996 51.9166 97.5213 52.1783C97.5343 51.8781 97.498 51.4008 97.2986 50.7029C97.1873 50.3129 96.9956 49.8408 96.8273 49.4251C96.5476 48.7323 96.4052 48.3628 96.4492 48.1858C96.4725 48.0934 96.6409 47.7573 97.0189 47.008C97.6508 45.7533 98.7047 43.6544 98.9249 42.8333C98.943 42.7641 99.0155 42.723 99.0828 42.741C99.1527 42.7589 99.1942 42.8282 99.176 42.8975C98.9508 43.7442 97.9279 45.7764 97.252 47.1209C96.9801 47.6623 96.7237 48.1704 96.703 48.2474C96.6797 48.3603 96.8972 48.8965 97.0707 49.3276C97.2416 49.751 97.4333 50.2282 97.5498 50.6311C97.8424 51.6497 97.801 52.2373 97.7466 52.4965C97.7207 52.6222 97.6301 52.6376 97.6016 52.6402C97.5239 52.6453 97.4177 52.653 97.1018 51.8499C97.107 52.5683 97.1225 53.5921 97.1614 53.8692C97.1976 54.1156 97.2235 54.5518 96.993 54.6929C96.9594 54.7185 96.9076 54.7365 96.8428 54.7365Z" fill="#3F4553"/>
<path d="M96.8195 54.6389C96.7677 54.6389 96.7159 54.6055 96.6978 54.5542C96.6926 54.544 96.2783 53.4021 96.0737 51.9755C96.0634 51.9062 96.1126 51.8395 96.1825 51.8293C96.2524 51.819 96.3197 51.8677 96.3301 51.937C96.5321 53.3354 96.9386 54.4516 96.9412 54.4644C96.9645 54.5311 96.9309 54.6055 96.8635 54.6286C96.848 54.6363 96.8325 54.6389 96.8195 54.6389Z" fill="#3F4553"/>
<path d="M96.356 54.3311C96.3094 54.3311 96.2628 54.3054 96.2395 54.2593C96.2214 54.2259 95.8174 53.4125 95.5585 52.0808C95.5455 52.0116 95.5921 51.9448 95.662 51.9294C95.732 51.9166 95.7993 51.9602 95.8148 52.0321C96.066 53.3278 96.47 54.1361 96.4726 54.1438C96.5036 54.2079 96.4777 54.2849 96.4156 54.3157C96.3949 54.3285 96.3742 54.3311 96.356 54.3311Z" fill="#3F4553"/>
<path d="M120.903 40.2827C120.903 40.2827 124.158 42.9897 124.678 44.7319C125.199 46.4742 124.808 50.4718 124.872 51.6958C124.937 52.9197 124.09 54.2745 123.702 54.5336C123.314 54.7928 123.246 54.3412 123.311 53.8896C123.376 53.438 123.376 51.1159 123.376 51.1159C123.376 51.1159 122.79 52.7914 122.726 52.4707C122.661 52.1499 122.661 51.5675 122.92 50.6643C123.181 49.7611 123.831 48.473 123.767 48.2138C123.702 47.9547 121.62 44.0879 121.294 42.8614" fill="#FED9CE"/>
<path d="M123.503 54.7365C123.438 54.7365 123.389 54.716 123.35 54.6929C123.122 54.5518 123.148 54.1156 123.182 53.8692C123.22 53.5921 123.236 52.5658 123.241 51.8499C122.925 52.6504 122.824 52.6453 122.741 52.6402C122.713 52.6376 122.622 52.6222 122.596 52.4965C122.545 52.2373 122.501 51.6497 122.793 50.6311C122.91 50.2282 123.101 49.751 123.272 49.3276C123.446 48.8965 123.661 48.3603 123.637 48.2474C123.617 48.173 123.36 47.6598 123.088 47.1184C122.412 45.7738 121.39 43.7417 121.167 42.8975C121.149 42.8282 121.19 42.7589 121.26 42.741C121.327 42.723 121.4 42.7641 121.418 42.8333C121.636 43.6519 122.692 45.7533 123.321 47.0055C123.699 47.7573 123.868 48.0934 123.891 48.1858C123.935 48.3628 123.793 48.7323 123.513 49.4251C123.345 49.8408 123.156 50.3129 123.042 50.7029C122.84 51.4008 122.803 51.8781 122.819 52.1783C122.941 51.914 123.112 51.4727 123.251 51.0775C123.272 51.0185 123.332 50.9826 123.397 50.9929C123.459 51.0031 123.505 51.057 123.505 51.1186C123.505 51.2135 123.505 53.4536 123.438 53.9103C123.389 54.2515 123.438 54.4491 123.487 54.4799C123.503 54.4902 123.554 54.4799 123.63 54.4286C123.99 54.19 124.805 52.8788 124.743 51.7036C124.722 51.329 124.746 50.6978 124.772 49.9691C124.831 48.2807 124.911 45.9663 124.554 44.768C124.049 43.0848 120.854 40.4086 120.82 40.3803C120.766 40.3342 120.758 40.2546 120.804 40.2007C120.851 40.1469 120.931 40.1392 120.986 40.1853C121.12 40.2957 124.274 42.9385 124.8 44.6962C125.17 45.9329 125.087 48.2705 125.028 49.9768C125.002 50.7004 124.981 51.3264 124.999 51.6882C125.067 52.9737 124.179 54.3696 123.769 54.639C123.663 54.7134 123.575 54.7365 123.503 54.7365Z" fill="#3F4553"/>
<path d="M123.508 54.5363C123.497 54.5363 123.487 54.5363 123.474 54.5312C123.404 54.5132 123.363 54.4439 123.381 54.3746C123.386 54.3592 123.79 52.7941 123.79 51.7523C123.79 51.6805 123.847 51.624 123.919 51.624C123.992 51.624 124.049 51.6805 124.049 51.7523C124.049 52.8274 123.65 54.3746 123.632 54.4388C123.619 54.4978 123.565 54.5363 123.508 54.5363Z" fill="#3F4553"/>
<path d="M123.971 54.485C123.956 54.485 123.943 54.4824 123.927 54.4773C123.86 54.4542 123.826 54.3798 123.849 54.3131C123.855 54.2977 124.461 52.6427 124.461 52.0089C124.461 51.937 124.518 51.8806 124.59 51.8806C124.663 51.8806 124.72 51.937 124.72 52.0089C124.72 52.6863 124.119 54.331 124.093 54.4003C124.075 54.4542 124.023 54.485 123.971 54.485Z" fill="#3F4553"/>
<path d="M64.219 94.9976C75.9465 94.9976 85.4535 92.7816 85.4535 90.048C85.4535 87.3144 75.9465 85.0984 64.219 85.0984C52.4916 85.0984 42.9846 87.3144 42.9846 90.048C42.9846 92.7816 52.4916 94.9976 64.219 94.9976Z" fill="#F4A17C"/>
<path d="M65.4436 94.9994C77.8581 94.9994 87.922 92.7902 87.922 90.0651C87.922 87.34 77.8581 85.1308 65.4436 85.1308C53.029 85.1308 42.9651 87.34 42.9651 90.0651C42.9651 92.7902 53.029 94.9994 65.4436 94.9994Z" fill="#F4A17C"/>
<path d="M55.296 86.6072C55.296 86.6072 52.1471 88.2469 51.5541 89.0962C50.9611 89.9455 51.7509 90.6203 52.9343 90.7024C54.1178 90.7845 58.9887 89.1603 59.429 88.9499C59.8718 88.7395 59.5507 87.4643 59.2296 86.8074C58.9111 86.148 55.296 86.6072 55.296 86.6072Z" fill="#E49621"/>
<path d="M53.025 90.8332C52.9888 90.8332 52.9551 90.8332 52.9241 90.8306C52.1394 90.7768 51.5205 90.4663 51.3056 90.025C51.202 89.8094 51.1398 89.4605 51.4454 89.0243C52.0514 88.1596 55.1045 86.5636 55.2339 86.4943C55.2469 86.4866 55.2624 86.4815 55.278 86.4815C55.8969 86.4019 59.0018 86.0478 59.3436 86.7509C59.5223 87.1178 59.6776 87.6182 59.7398 88.0261C59.8252 88.5932 59.7398 88.9422 59.4808 89.0653C59.0458 89.2732 54.3949 90.8332 53.025 90.8332ZM55.3349 86.7304C55.063 86.8741 52.2042 88.3879 51.6578 89.168C51.4687 89.4374 51.4299 89.6888 51.5386 89.9121C51.7121 90.2713 52.2508 90.5253 52.9422 90.5741C54.1075 90.6587 58.9344 89.0422 59.3721 88.8344C59.5067 88.7702 59.5507 88.4829 59.486 88.0646C59.429 87.6797 59.2814 87.2076 59.1131 86.8612C58.9215 86.4661 56.798 86.5482 55.3349 86.7304Z" fill="#3F4553"/>
<path d="M59.5917 87.9081C58.3436 88.4495 54.8995 89.9095 53.7108 90.0608C52.7423 90.184 51.8515 89.8222 51.3595 89.5631C51.2792 90.1814 51.9784 90.6356 52.934 90.7023C54.1174 90.7844 58.9884 89.1602 59.4286 88.9498C59.672 88.8318 59.6824 88.3905 59.5917 87.9081Z" fill="#F1BD54"/>
<path d="M53.0247 90.8333C52.9885 90.8333 52.9548 90.8333 52.9237 90.8307C52.2608 90.7845 51.717 90.5613 51.4322 90.2175C51.269 90.0199 51.1991 89.789 51.2276 89.5478C51.2328 89.5067 51.2587 89.4682 51.2975 89.4503C51.3337 89.4297 51.3804 89.4297 51.4166 89.4503C51.8594 89.6838 52.7451 90.0558 53.6928 89.9352C54.8789 89.7838 58.4654 88.2571 59.5375 87.7927C59.5737 87.7773 59.6152 87.7773 59.6488 87.7978C59.6825 87.8158 59.7084 87.8492 59.7162 87.8876C59.8379 88.5266 59.7576 88.9345 59.4831 89.0654C59.0455 89.2732 54.3946 90.8333 53.0247 90.8333ZM51.4917 89.7736C51.5124 89.8736 51.559 89.966 51.6315 90.0558C51.8672 90.3406 52.3566 90.5331 52.9393 90.5741C54.1046 90.6588 58.9315 89.0423 59.3692 88.8345C59.5012 88.7703 59.5427 88.4932 59.4883 88.0929C58.0252 88.7241 54.8685 90.043 53.7239 90.1893C52.8357 90.2996 52.0019 90.0122 51.4917 89.7736Z" fill="#3F4553"/>
<path d="M70.5463 86.6072C70.5463 86.6072 73.6952 88.2469 74.2882 89.0962C74.8812 89.9455 74.0914 90.6203 72.9079 90.7024C71.7245 90.7845 66.8535 89.1603 66.4133 88.9499C65.9705 88.7395 66.2916 87.4643 66.6127 86.8074C66.9338 86.148 70.5463 86.6072 70.5463 86.6072Z" fill="#E49621"/>
<path d="M72.8199 90.8333C71.4474 90.8333 66.7992 89.2732 66.3589 89.0654C66.1026 88.9422 66.0145 88.5932 66.1 88.0262C66.1621 87.6182 66.3175 87.1179 66.4962 86.7509C66.838 86.0453 69.9429 86.402 70.5618 86.4815C70.5773 86.4841 70.5929 86.4892 70.6058 86.4943C70.7353 86.5611 73.791 88.157 74.3944 89.0243C74.6999 89.4605 74.6404 89.8095 74.5342 90.025C74.3193 90.4689 73.7004 90.7768 72.9157 90.8307C72.8872 90.8307 72.8536 90.8333 72.8199 90.8333ZM68.239 86.579C67.4543 86.579 66.8302 86.656 66.7292 86.8613C66.5609 87.2077 66.4133 87.6798 66.3563 88.0647C66.2916 88.4829 66.3356 88.7703 66.4703 88.8344C66.8976 89.0397 71.5096 90.5792 72.8095 90.5792C72.8432 90.5792 72.8717 90.5792 72.9002 90.5767C73.5916 90.5279 74.1276 90.2739 74.3037 89.9147C74.4125 89.6914 74.371 89.44 74.1846 89.1706C73.6408 88.3905 70.7793 86.8767 70.5074 86.733C69.8082 86.6432 68.9563 86.579 68.239 86.579Z" fill="#3F4553"/>
<path d="M66.2523 87.9082C67.5005 88.4496 70.9446 89.9096 72.1332 90.061C73.1017 90.1841 73.9925 89.8223 74.4845 89.5632C74.5648 90.1815 73.8656 90.6357 72.9101 90.7024C71.7267 90.7845 66.8557 89.1603 66.4155 88.9499C66.1695 88.8319 66.1591 88.3906 66.2523 87.9082Z" fill="#F1BD54"/>
<path d="M72.8195 90.8333C71.4471 90.8333 66.7988 89.2732 66.3586 89.0654C66.0841 88.9345 66.0038 88.5265 66.1255 87.8876C66.1333 87.8491 66.1566 87.8158 66.1928 87.7978C66.2291 87.7799 66.2679 87.7773 66.3042 87.7927C67.3763 88.2571 70.9654 89.7838 72.1488 89.9352C73.0966 90.0558 73.9822 89.6837 74.4251 89.4502C74.4639 89.4297 74.5079 89.4297 74.5442 89.4502C74.583 89.4708 74.6089 89.5067 74.6141 89.5477C74.6452 89.7889 74.5752 90.0199 74.4095 90.2174C74.1247 90.5613 73.5809 90.7845 72.9179 90.8307C72.8868 90.8307 72.8532 90.8333 72.8195 90.8333ZM66.3534 88.0929C66.2964 88.4932 66.3404 88.7703 66.4725 88.8344C66.8998 89.0397 71.5118 90.5767 72.8117 90.5792C72.8454 90.5792 72.8739 90.5792 72.9024 90.5767C73.485 90.5356 73.9745 90.3406 74.2101 90.0584C74.2826 89.9711 74.3292 89.8762 74.35 89.7761C73.8424 90.0147 73.0111 90.3047 72.1152 90.1918C70.9706 90.043 67.8165 88.7241 66.3534 88.0929Z" fill="#3F4553"/>
<path d="M56.8547 54.5002C56.8547 54.5002 53.9881 66.7908 53.5893 68.5459C53.1905 70.301 52.8979 72.2741 53.364 73.4544C53.8301 74.6348 55.3243 86.2172 55.3243 86.2172L59.6178 87.377C59.6178 87.377 59.6722 79.9359 59.5298 77.0108C59.3873 74.0857 59.2216 70.3882 59.2216 70.3882L63.7844 59.1214L64.538 60.1092L67.9536 70.2086L65.9441 87.1358L70.0279 86.0761C70.0279 86.0761 73.5367 75.3096 74.109 73.0696C74.6787 70.8295 74.9532 69.3234 74.5078 68.2944C74.0624 67.2655 71.1725 55.7831 71.1725 55.7831L56.8547 54.5002Z" fill="#3F4553"/>
<path d="M59.6152 87.5027C59.6049 87.5027 59.5919 87.5001 59.5816 87.4976L55.2881 86.3378C55.2389 86.325 55.2 86.2813 55.1949 86.23C55.1793 86.1146 53.6955 74.6502 53.2423 73.4981C52.8539 72.5102 52.9238 70.8809 53.4624 68.5151C53.856 66.7806 56.6994 54.5926 56.7279 54.4694C56.7434 54.4078 56.8004 54.3642 56.8651 54.3694L71.1777 55.6523C71.232 55.6574 71.2786 55.6959 71.2916 55.7498C71.3201 55.8653 74.1841 67.2347 74.6218 68.2406C75.0698 69.2721 74.8289 70.7423 74.2282 73.0978C73.6636 75.3173 70.1807 86.0042 70.147 86.112C70.1341 86.153 70.1004 86.1864 70.0564 86.1967L65.9726 87.2564C65.9312 87.2666 65.8872 87.2564 65.8535 87.2282C65.8198 87.1999 65.8043 87.1589 65.8095 87.1153L67.8164 70.2189L64.4163 60.1657L63.8129 59.3754L59.3511 70.4087C59.3666 70.7526 59.522 74.2242 59.6593 77.0031C59.8017 79.8974 59.7473 87.3026 59.7473 87.377C59.7473 87.418 59.7292 87.454 59.6955 87.4771C59.6722 87.495 59.6437 87.5027 59.6152 87.5027ZM55.4409 86.1146L59.4884 87.2076C59.4961 86.0889 59.5298 79.6588 59.4003 77.0133C59.2579 74.0882 59.0921 70.3908 59.0921 70.3908C59.0921 70.3728 59.0947 70.3549 59.1025 70.3369L63.6653 59.0701C63.6835 59.0264 63.7223 58.9957 63.7689 58.9905C63.8181 58.9854 63.8621 59.0034 63.8906 59.0418L64.6442 60.0297C64.6519 60.04 64.6597 60.0528 64.6623 60.0656L68.0779 70.165C68.0831 70.1829 68.0857 70.2009 68.0831 70.2214L66.0943 86.9613L69.9269 85.9657C70.2247 85.0523 73.4435 75.1531 73.9822 73.0336C74.5674 70.7346 74.8056 69.3028 74.3887 68.3406C73.9589 67.3528 71.3589 57.0481 71.0689 55.8986L56.9583 54.6336C56.6735 55.8576 54.0917 66.9243 53.7188 68.569C53.1931 70.8834 53.118 72.464 53.4883 73.4031C53.9337 74.5475 55.2933 84.9779 55.4409 86.1146Z" fill="#3F4553"/>
<path d="M67.3188 84.5647C67.3136 84.5647 67.3085 84.5647 67.3033 84.5647C67.2334 84.557 67.1816 84.4929 67.1893 84.421C67.2049 84.2979 68.6835 72.0791 68.7612 71.3966C68.8026 71.0476 68.813 70.9424 69.0538 70.9296C69.1678 70.9244 69.4086 70.9116 69.9369 70.5601C70.0638 70.4754 70.1466 70.4138 70.1984 70.3728C70.1285 70.3728 70.0405 70.3753 69.9654 70.3779C69.6442 70.3882 69.204 70.4036 68.8907 70.2676C68.163 69.952 66.2416 63.5886 65.8635 62.3133C65.8428 62.2466 65.8816 62.1748 65.9515 62.1542C66.0188 62.1337 66.0914 62.1722 66.1121 62.2415C67.1919 65.8799 68.5696 69.8468 68.9943 70.0315C69.2558 70.1444 69.6624 70.1316 69.9576 70.1213C70.2968 70.1111 70.4859 70.1034 70.5376 70.2573C70.5817 70.3907 70.4755 70.5113 70.0845 70.7731C69.4966 71.1656 69.2092 71.181 69.0694 71.1862C69.0642 71.1862 69.059 71.1862 69.0538 71.1862C69.0435 71.2324 69.0331 71.3222 69.0228 71.4248C68.9451 72.1099 67.4638 84.3286 67.4483 84.4518C67.4405 84.516 67.3836 84.5647 67.3188 84.5647Z" fill="#4E5567"/>
<path d="M59.3664 81.881C59.3016 81.881 59.2446 81.8322 59.2369 81.7681L59.1281 80.8521C59.1204 80.7828 59.1721 80.7186 59.2421 80.7109C59.312 80.7032 59.3767 80.7546 59.3845 80.8238L59.4932 81.7399C59.501 81.8091 59.4492 81.8733 59.3793 81.881C59.3767 81.881 59.3715 81.881 59.3664 81.881Z" fill="#4E5567"/>
<path d="M59.0997 79.5973C59.035 79.5973 58.978 79.5485 58.9703 79.4844L58.0044 71.2658C57.8334 71.2299 57.4372 71.1427 56.9167 70.999C56.8235 70.9733 56.6267 70.9195 56.6189 70.7655C56.6086 70.5936 56.8132 70.5115 57.2637 70.3319C57.6133 70.1933 58.051 70.0188 58.4498 69.7699C58.9262 69.4749 60.0579 67.0219 61.5521 63.0422C61.578 62.9755 61.6505 62.9421 61.7178 62.9678C61.7851 62.9934 61.8188 63.0653 61.7929 63.132C60.7053 66.0263 59.2655 69.5647 58.5844 69.988C58.1649 70.2472 57.6988 70.4345 57.357 70.5705C57.2094 70.6295 57.0488 70.6937 56.9478 70.7424C56.9582 70.745 56.9685 70.7475 56.9815 70.7527C57.6729 70.9425 58.139 71.0323 58.1442 71.0349C58.1986 71.0452 58.2426 71.0914 58.2478 71.1452L59.224 79.4562C59.2318 79.5254 59.18 79.5896 59.1101 79.5973C59.1101 79.5973 59.1049 79.5973 59.0997 79.5973Z" fill="#4E5567"/>
<path d="M62.1683 61.8745C62.1528 61.8745 62.1398 61.872 62.1243 61.8668C62.057 61.8437 62.0233 61.7693 62.0466 61.7026C62.2227 61.2202 62.3263 60.9251 62.3263 60.9251C62.3496 60.8584 62.4247 60.8225 62.492 60.8456C62.5594 60.8687 62.5956 60.9431 62.5723 61.0098C62.5723 61.0098 62.4687 61.3049 62.2926 61.7898C62.2719 61.8412 62.2227 61.8745 62.1683 61.8745Z" fill="#4E5567"/>
<path d="M65.527 34.5015C65.527 34.5015 58.5792 33.3699 55.7799 32.8721C52.9806 32.3743 50.5748 31.9048 50.5748 31.9048L49.3552 35.7767C49.3552 35.7767 54.9098 37.6293 56.3729 38.0629C57.836 38.4966 58.4135 38.7326 58.4135 38.7326C58.4135 38.7326 58.6051 48.0802 58.0043 50.0918C57.4035 52.1035 56.0518 56.1473 56.0518 56.1473L63.2093 60.1193L64.6465 57.9229L64.7579 59.9987C64.7579 59.9987 67.0082 59.8679 69.0359 59.2238C71.0635 58.5798 72.2909 57.8049 72.2909 57.8049L70.6828 50.8051L72.8762 41.7758C72.8762 41.7758 83.9285 39.5999 83.9932 38.8943C84.0579 38.1887 82.4731 35.6022 82.4731 35.6022L67.4977 34.6349L65.527 34.5015Z" fill="#FFF9F1"/>
<path d="M63.2099 60.2503C63.1892 60.2503 63.1659 60.2452 63.1477 60.2349L55.9902 56.2629C55.9358 56.2321 55.9099 56.168 55.9306 56.1115C55.9436 56.0705 57.2901 52.0471 57.8831 50.0586C58.4399 48.1906 58.3052 39.7668 58.2871 38.8226C58.0851 38.7456 57.4818 38.5249 56.3372 38.1862C54.8896 37.7577 49.3712 35.918 49.3169 35.9C49.2495 35.8769 49.2133 35.8076 49.234 35.7409L50.4537 31.869C50.4744 31.8074 50.5365 31.7664 50.6013 31.7818C50.6246 31.7869 53.0381 32.2564 55.8037 32.7465C58.5357 33.2315 65.3048 34.3348 65.5431 34.3759L67.5086 34.5119L82.484 35.4792C82.5254 35.4818 82.5643 35.5049 82.5876 35.5408C82.7507 35.8102 84.1931 38.1862 84.1258 38.9124C84.1077 39.0997 84.0766 39.4461 78.4417 40.7316C75.9635 41.2961 73.462 41.799 72.9855 41.8939L70.818 50.8155L72.4184 57.7845C72.4313 57.8384 72.408 57.8922 72.3614 57.9205C72.3485 57.9282 71.0951 58.7133 69.0752 59.3548C67.0554 59.9963 64.7895 60.1348 64.7662 60.1348C64.7325 60.1374 64.6989 60.1246 64.673 60.1015C64.6471 60.0784 64.6315 60.0476 64.629 60.0117L64.5383 58.3285L63.3186 60.1939C63.2927 60.2298 63.2513 60.2503 63.2099 60.2503ZM56.2077 56.091L63.1659 59.9527L64.5357 57.8589C64.5668 57.8127 64.6238 57.7922 64.6782 57.805C64.7325 57.8204 64.7714 57.8666 64.774 57.923L64.8801 59.868C65.3877 59.8295 67.2833 59.6524 68.995 59.1085C70.6989 58.5671 71.8435 57.9256 72.1439 57.7486L70.5565 50.8412C70.5513 50.8207 70.5513 50.8027 70.5565 50.7822L72.7498 41.7528C72.7628 41.704 72.8016 41.6681 72.8508 41.6579C78.0092 40.6418 83.6234 39.3229 83.8694 38.8764C83.9134 38.3607 82.8543 36.485 82.3986 35.7332L67.4904 34.771L65.5172 34.635C65.512 34.635 65.5094 34.635 65.5042 34.6325C65.4343 34.6222 58.5254 33.4932 55.7571 33.0031C53.3281 32.572 51.1736 32.1564 50.6634 32.0589L49.5163 35.7024C50.3346 35.9744 55.0838 37.5524 56.4097 37.9476C57.8624 38.3787 58.4399 38.6122 58.4632 38.6224C58.5098 38.6429 58.5409 38.6866 58.5435 38.7379C58.5513 39.1202 58.7273 48.129 58.1292 50.1356C57.5879 51.9445 56.4226 55.4521 56.2077 56.091Z" fill="#3F4553"/>
<path d="M63.0953 34.0192L62.7924 38.4505L66.4618 37.0264L70.3616 40.008L70.2373 34.1834L63.0953 34.0192Z" fill="white"/>
<path d="M70.362 40.1363C70.3335 40.1363 70.305 40.126 70.2817 40.1106L66.4414 37.1753L62.8393 38.5737C62.7978 38.5891 62.7512 38.5839 62.715 38.5583C62.6787 38.5326 62.6606 38.489 62.6632 38.4454L62.9662 34.0141C62.9713 33.9448 63.0361 33.896 63.0982 33.8935L70.2377 34.0577C70.3076 34.0603 70.362 34.1141 70.3645 34.1834L70.4888 40.008C70.4888 40.0567 70.4629 40.1029 70.4189 40.126C70.4008 40.1312 70.3827 40.1363 70.362 40.1363ZM66.4621 36.8981C66.4906 36.8981 66.519 36.9084 66.5423 36.9238L70.2273 39.7411L70.1108 34.3092L63.2173 34.1501L62.9351 38.2581L66.4155 36.9084C66.431 36.9007 66.4465 36.8981 66.4621 36.8981Z" fill="#3F4553"/>
<path d="M64.7891 57.6305C64.7865 57.6305 64.7813 57.6305 64.7787 57.6305C64.7062 57.6254 64.6544 57.5638 64.6596 57.4919L66.0994 40.5211C66.1046 40.4493 66.1693 40.4005 66.2393 40.4031C66.3118 40.4082 66.3636 40.4698 66.3584 40.5417L64.9186 57.5125C64.9108 57.5817 64.8538 57.6305 64.7891 57.6305Z" fill="#3F4553"/>
<path d="M72.8766 41.9066C72.8507 41.9066 72.8248 41.8989 72.8041 41.8835C72.7523 41.8476 72.7316 41.7809 72.76 41.7218L74.4925 38.0988C74.5235 38.0347 74.6012 38.009 74.666 38.0372C74.7307 38.068 74.7592 38.145 74.7281 38.2091L73.3505 41.0881L76.4942 37.755C76.5434 37.7037 76.6237 37.7011 76.6781 37.7498C76.7299 37.7986 76.7324 37.8781 76.6832 37.932L72.9724 41.8681C72.9465 41.8938 72.9102 41.9066 72.8766 41.9066Z" fill="#3F4553"/>
<path d="M58.4139 38.8635C58.375 38.8635 58.3362 38.8455 58.3103 38.8122L55.4669 35.1122C55.4229 35.0557 55.4333 34.9762 55.4902 34.9326C55.5472 34.8889 55.6275 34.8992 55.6715 34.9556L57.9192 37.8782L57.1346 35.9846C57.1087 35.9204 57.1398 35.8434 57.2045 35.8178C57.2693 35.7921 57.347 35.8229 57.3729 35.8871L58.5304 38.6839C58.5537 38.7429 58.5304 38.8122 58.476 38.843C58.4579 38.8558 58.4346 38.8635 58.4139 38.8635Z" fill="#3F4553"/>
<path d="M64.7789 34.3785L66.2264 40.5315L68.8212 34.7249L67.4953 34.6402L65.5247 34.5042C65.5273 34.5016 65.245 34.4555 64.7789 34.3785Z" fill="white"/>
<path d="M66.2266 40.6597C66.2215 40.6597 66.2189 40.6597 66.2137 40.6597C66.1593 40.6546 66.1127 40.6161 66.0998 40.5622L64.6522 34.4092C64.6418 34.3682 64.6548 34.3245 64.6833 34.2912C64.7118 34.2578 64.7558 34.245 64.7998 34.2527L65.5482 34.3759L68.8317 34.5965C68.8732 34.5991 68.912 34.6222 68.9353 34.6581C68.956 34.694 68.9612 34.7376 68.9431 34.7761L66.3484 40.5828C66.325 40.6289 66.2784 40.6597 66.2266 40.6597ZM64.95 34.5375L66.2655 40.1286L68.6297 34.8403L65.5171 34.6299L64.95 34.5375Z" fill="#3F4553"/>
<path d="M64.7789 34.3785L66.2264 40.5315L68.8212 34.7249L67.4953 34.6402L65.5247 34.5042C65.5273 34.5016 65.245 34.4555 64.7789 34.3785Z" fill="#C6FF00"/>
<path d="M64.7789 34.3785L66.2264 40.5315L68.8212 34.7249L67.4953 34.6402L65.5247 34.5042C65.5273 34.5016 65.245 34.4555 64.7789 34.3785Z" fill="#FED9CE"/>
<path d="M86.7337 37.4909C86.7337 37.4909 86.8606 38.5147 86.2857 38.9637C85.7134 39.4128 83.2922 40.1902 82.6137 39.7874C81.9352 39.3845 80.9745 37.2523 81.35 35.7512C81.7255 34.2528 83.9939 34.8096 83.9939 34.8096C83.9939 34.8096 86.2106 35.5126 86.7337 37.4909Z" fill="white"/>
<path d="M83.1804 40.0261C82.9189 40.0261 82.6988 39.9876 82.5486 39.8978C81.7924 39.4488 80.8524 37.2139 81.2253 35.7205C81.3936 35.0482 81.9374 34.6582 82.8024 34.5889C83.4316 34.5402 84.0013 34.6762 84.0246 34.6839C84.1256 34.7147 86.3242 35.4331 86.8576 37.4551C86.8602 37.4602 86.8602 37.4653 86.8602 37.473C86.8654 37.5166 86.9871 38.5738 86.3656 39.0613C85.915 39.418 84.224 40.0261 83.1804 40.0261ZM83.0846 34.8378C82.4502 34.8378 81.6681 35.0046 81.4739 35.7821C81.1088 37.2395 82.0721 39.3153 82.6806 39.6771C83.2944 40.0415 85.6405 39.3051 86.205 38.8637C86.6893 38.484 86.6142 37.6064 86.6064 37.5141C86.104 35.6358 83.9754 34.9405 83.9547 34.9328C83.9469 34.9302 83.5559 34.8378 83.0846 34.8378Z" fill="#575C69"/>
<path d="M84.6825 38.5763C83.6207 38.6353 82.6859 37.8809 82.4166 36.8623C81.7407 34.2861 80.0937 28.2229 79.4671 27.8073C78.6695 27.2813 78.0583 27.1478 78.0687 26.6603C78.0791 26.1754 78.1205 24.2304 78.1205 24.2304C78.1205 24.2304 78.4753 23.7018 78.7109 24.1945C78.9466 24.6846 78.8896 25.072 78.8896 25.072C78.8896 25.072 79.2806 23.9866 79.2392 23.6454C79.1978 23.3041 79.1175 22.3804 79.1227 22.1366C79.1278 21.8929 79.4515 21.6825 79.9306 22.1777C80.4097 22.6729 81.3445 23.7378 81.1632 24.2432C80.982 24.7487 80.6583 27.2453 80.6583 27.2453C80.6583 27.2453 86.6557 35.9693 86.5418 36.7442C86.4589 37.301 85.9747 38.5044 84.6825 38.5763Z" fill="#FED9CE"/>
<path d="M84.5659 38.7071C83.5171 38.7071 82.572 37.9604 82.2923 36.893C80.9095 31.6201 79.7985 28.1793 79.3972 27.9124C79.1667 27.761 78.9517 27.643 78.7627 27.5378C78.281 27.2709 77.9315 27.0785 77.9418 26.6577L77.9936 24.2278C77.9936 24.2047 78.0014 24.179 78.0143 24.1585C78.035 24.1252 78.2344 23.8378 78.4908 23.8557C78.6306 23.866 78.7446 23.9609 78.83 24.138C78.8844 24.2509 78.9233 24.3612 78.9543 24.4613C79.0501 24.1303 79.1278 23.7993 79.1123 23.6607C79.0709 23.3297 78.9906 22.3932 78.9958 22.134C78.9984 21.9749 79.0968 21.8338 79.2444 21.7774C79.3738 21.726 79.6509 21.7004 80.0264 22.0904C80.5858 22.6677 81.4921 23.7197 81.2875 24.2894C81.1244 24.7384 80.8421 26.8681 80.7955 27.2171C81.8624 28.7694 86.7878 35.9898 86.6738 36.7673C86.5806 37.4036 86.0446 38.6301 84.6954 38.7045C84.6462 38.7071 84.6048 38.7071 84.5659 38.7071ZM78.2474 24.274L78.1982 26.6628C78.193 26.9168 78.4183 27.0528 78.887 27.3146C79.0812 27.4223 79.3013 27.5429 79.5396 27.6994C80.1481 28.0997 81.5076 32.8851 82.5435 36.8289C82.8024 37.8219 83.6984 38.5018 84.6747 38.448C85.8581 38.3812 86.3294 37.2959 86.4123 36.7288C86.49 36.2002 82.8568 30.6784 80.5495 27.3197C80.5314 27.294 80.5236 27.2632 80.5288 27.2324C80.5417 27.1298 80.8551 24.7179 81.0389 24.2021C81.1477 23.8968 80.6764 23.1373 79.8348 22.2674C79.6043 22.0288 79.4256 21.9801 79.3324 22.016C79.2729 22.0391 79.2495 22.0955 79.2495 22.1392C79.2444 22.3701 79.3195 23.2733 79.3635 23.6299C79.4075 23.9917 79.0501 25.0001 79.0087 25.1156C78.9854 25.1772 78.9207 25.2131 78.8559 25.1977C78.7912 25.1823 78.7498 25.1207 78.7601 25.054C78.7601 25.0514 78.8067 24.6948 78.5944 24.2483C78.5555 24.1662 78.5089 24.1149 78.4701 24.1123C78.4157 24.1046 78.3095 24.197 78.2474 24.274Z" fill="#3F4553"/>
<path d="M80.174 25.1619C80.161 25.1619 80.1481 25.1593 80.1377 25.1568C80.0704 25.1362 80.0289 25.0644 80.0523 24.9977L80.3319 24.0714C80.2724 23.9379 80.1066 23.5479 80.0885 23.1913C80.0782 22.9937 80.1584 22.9039 80.2258 22.8628C80.3993 22.7576 80.6427 22.8911 80.6893 22.9167C80.7514 22.9526 80.7696 23.0322 80.7333 23.0912C80.6971 23.1528 80.6168 23.1733 80.5572 23.1374C80.4795 23.0912 80.3811 23.0681 80.3578 23.0809C80.3578 23.0809 80.3397 23.1015 80.3449 23.1784C80.3656 23.5582 80.5831 24.0021 80.5857 24.0072C80.6013 24.0355 80.6038 24.0688 80.5935 24.0996L80.2983 25.0746C80.2801 25.126 80.2283 25.1619 80.174 25.1619Z" fill="#263238"/>
<path d="M79.7311 25.0463C79.7208 25.0463 79.7104 25.0463 79.7 25.0437C79.6301 25.0258 79.5887 24.9565 79.6042 24.8898L79.8218 24.0097C79.757 23.8711 79.5861 23.4324 79.6871 22.9705C79.7337 22.7627 79.8269 22.6241 79.9668 22.5625C80.1584 22.4753 80.3474 22.5754 80.3682 22.5856C80.4303 22.619 80.4536 22.6985 80.42 22.7601C80.3863 22.8217 80.3086 22.8448 80.2439 22.8114C80.2413 22.8089 80.1455 22.7627 80.0729 22.796C79.9979 22.8294 79.959 22.9397 79.9409 23.0244C79.8399 23.4811 80.0704 23.9301 80.0729 23.9353C80.0885 23.9635 80.0911 23.9943 80.0833 24.0251L79.8554 24.9514C79.8425 25.0078 79.7881 25.0463 79.7311 25.0463Z" fill="#263238"/>
<path d="M79.3609 25.0206C79.3531 25.0206 79.3454 25.0206 79.3376 25.018C79.2677 25.0052 79.2211 24.9385 79.2314 24.8692L79.4412 23.6966C79.4075 23.5631 79.2677 22.9832 79.247 22.5676C79.2366 22.3726 79.3169 22.2571 79.3868 22.193C79.5836 22.0108 79.9073 22.0467 79.9435 22.0518C80.0135 22.0621 80.0653 22.1237 80.0549 22.1955C80.0471 22.2648 79.9824 22.3161 79.9099 22.3059C79.8426 22.2982 79.6535 22.2956 79.5603 22.3803C79.5189 22.4188 79.5007 22.4752 79.5033 22.5547C79.5266 22.9909 79.6949 23.6555 79.6975 23.6606C79.7027 23.6786 79.7027 23.6966 79.7001 23.7145L79.4852 24.9128C79.4774 24.9769 79.423 25.0206 79.3609 25.0206Z" fill="#263238"/>
<path d="M68.5826 35.8231C77.4511 35.8231 84.6405 28.6994 84.6405 19.912C84.6405 11.1245 77.4511 4.00088 68.5826 4.00088C59.7141 4.00088 52.5247 11.1245 52.5247 19.912C52.5247 28.6994 59.7141 35.8231 68.5826 35.8231Z" fill="#FA6E5A"/>
<path opacity="0.3" d="M57.4996 19.2654C57.8207 11.5369 63.6576 5.32748 71.0922 4.19849C70.4863 4.10355 69.87 4.03941 69.2433 4.01375C60.3818 3.65196 52.9031 10.4747 52.5354 19.2526C52.1703 28.0331 59.0559 35.4433 67.9148 35.8077C68.9766 35.8513 70.015 35.7897 71.0275 35.6358C63.0827 34.399 57.1604 27.4249 57.4996 19.2654Z" fill="#AC3E2F"/>
<path d="M58.8515 21.3412C58.8515 21.3412 70.6366 19.8043 80.3889 22.2239C80.3889 22.2239 79.4748 31.923 69.2926 31.6997C60.4648 31.5073 58.8515 21.3412 58.8515 21.3412Z" fill="#3F4553"/>
<path d="M69.7819 16.302C69.396 16.302 69.062 16.0197 69.0128 15.6297C68.7668 13.7335 67.0266 12.3043 64.9627 12.3043C63.1241 12.3043 61.5056 13.4538 61.0266 15.096C60.9074 15.504 60.475 15.74 60.0632 15.622C59.6515 15.504 59.4132 15.078 59.5324 14.6675C60.2031 12.3684 62.4353 10.7648 64.9627 10.7648C67.8034 10.7648 70.2066 12.7713 70.5536 15.4347C70.6079 15.8555 70.3076 16.2429 69.8829 16.2968C69.8492 16.2994 69.8155 16.302 69.7819 16.302Z" fill="#3F4553"/>
<path d="M81.0958 18.1288C80.6763 18.1288 80.3319 17.7978 80.319 17.3795C80.2724 15.6886 78.8662 14.2774 77.0484 14.0978C75.4299 13.9387 73.8995 14.8059 73.3297 16.2095C73.1692 16.6046 72.716 16.7945 72.3198 16.638C71.921 16.4789 71.7294 16.0324 71.8874 15.6373C72.7134 13.6 74.8964 12.3376 77.2011 12.5659C79.7933 12.8225 81.8002 14.8752 81.8701 17.3359C81.8831 17.7619 81.5438 18.116 81.114 18.1262C81.1114 18.1288 81.1036 18.1288 81.0958 18.1288Z" fill="#3F4553"/>
<path d="M60.3846 21.639C60.4804 22.0239 61.1925 24.1305 65.3514 24.3024C69.9297 24.4897 74.5029 24.8464 76.8827 24.7745C78.307 24.7309 78.988 23.5172 79.3065 22.5473C72.0972 20.9128 63.9841 21.3285 60.3846 21.639Z" fill="white"/>
<path d="M72.338 30.9223C72.3406 28.6412 69.8701 26.7117 66.7342 26.5834C64.9966 26.5115 63.4195 27.0119 62.3215 27.8561C63.896 29.6445 66.1774 31.0891 69.4506 31.1609C70.5123 31.184 71.4705 31.0942 72.338 30.9223Z" fill="#4E5567"/>
<path d="M54.8347 86.6636L59.9647 88.2596L60.0061 86.1633L54.6276 85.0651L54.8347 86.6636Z" fill="#4E5567"/>
<path d="M59.965 88.3878C59.952 88.3878 59.9391 88.3853 59.9262 88.3827L54.7962 86.7867C54.747 86.7713 54.7134 86.7303 54.7056 86.6815L54.4984 85.0804C54.4932 85.0394 54.5088 84.9983 54.5399 84.9701C54.5709 84.9419 54.6124 84.929 54.6538 84.9393L60.0323 86.0375C60.0945 86.0503 60.1359 86.1042 60.1359 86.1658L60.0945 88.2621C60.0945 88.3032 60.0738 88.3391 60.0401 88.3647C60.0194 88.3801 59.9935 88.3878 59.965 88.3878ZM54.9516 86.5661L59.8381 88.0851L59.8744 86.2659L54.7781 85.2241L54.9516 86.5661Z" fill="#3F4553"/>
<path d="M65.3719 86.9741L66.0037 88.8318L71.056 86.7945L70.6753 85.0625L65.3719 86.9741Z" fill="#4E5567"/>
<path d="M66.0037 88.9576C65.9856 88.9576 65.9674 88.9525 65.9493 88.9448C65.9156 88.9294 65.8923 88.9037 65.8794 88.8704L65.2475 87.0152C65.2242 86.9485 65.2605 86.8767 65.3252 86.8536L70.6287 84.942C70.6649 84.9292 70.7038 84.9317 70.7348 84.9497C70.7685 84.9677 70.7918 84.9984 70.7996 85.0344L71.1802 86.7663C71.1932 86.8279 71.1595 86.8895 71.1025 86.9126L66.0503 88.9473C66.0374 88.955 66.0192 88.9576 66.0037 88.9576ZM65.535 87.0512L66.0814 88.66L70.9057 86.7176L70.5794 85.2345L65.535 87.0512Z" fill="#3F4553"/>
<path d="M46.5411 33.3474C46.5411 33.3474 46.1967 34.3199 46.6602 34.8818C47.1238 35.4437 49.3197 36.7139 50.0681 36.4624C50.8165 36.2135 52.2149 34.3301 52.1734 32.788C52.1294 31.2434 49.7936 31.3075 49.7936 31.3075C49.7936 31.3075 47.4785 31.5256 46.5411 33.3474Z" fill="white"/>
<path d="M49.8476 36.6211C48.8791 36.6211 46.9731 35.4613 46.5588 34.961C46.0564 34.3528 46.4009 33.347 46.4164 33.3034C46.419 33.2983 46.4216 33.2931 46.4242 33.288C47.3823 31.4226 49.6844 31.1891 49.7802 31.1788C50.6451 31.1609 52.2636 31.4611 52.3025 32.7825C52.3465 34.3195 50.9455 36.3029 50.1091 36.5826C50.034 36.6083 49.946 36.6211 49.8476 36.6211ZM46.6598 33.3958C46.6313 33.4856 46.3698 34.3246 46.7608 34.7993C47.2166 35.351 49.3504 36.5646 50.0288 36.3414C50.7021 36.1156 52.0875 34.2938 52.0461 32.7928C52.0073 31.3944 49.8217 31.438 49.7984 31.438C49.7828 31.438 47.5558 31.6689 46.6598 33.3958Z" fill="#3F4553"/>
<path d="M47.7759 34.6967C48.8014 34.9789 49.876 34.4401 50.3577 33.501C51.5722 31.1275 54.4881 25.5519 55.1898 25.2799C56.0832 24.9335 56.7073 24.9335 56.8031 24.4562C56.8989 23.979 57.277 22.0725 57.277 22.0725C57.277 22.0725 57.044 21.4824 56.7099 21.9134C56.3758 22.3419 56.3474 22.7345 56.3474 22.7345C56.3474 22.7345 56.1998 21.5927 56.3137 21.2668C56.4276 20.9435 56.7047 20.0557 56.7513 19.8171C56.7979 19.5785 56.5286 19.3039 55.9537 19.6863C55.3789 20.0686 54.2369 20.9102 54.3042 21.4439C54.3741 21.9776 54.1488 24.4845 54.1488 24.4845C54.1488 24.4845 46.4086 31.7382 46.3542 32.5208C46.3154 33.0776 46.5277 34.3529 47.7759 34.6967Z" fill="#FED9CE"/>
<path d="M48.3326 34.902C48.1358 34.902 47.939 34.8764 47.7422 34.8225C46.4396 34.4632 46.1806 33.1546 46.2247 32.5106C46.279 31.7254 52.6468 25.7136 54.0244 24.4229C54.0555 24.0714 54.2368 21.9314 54.1746 21.4593C54.0969 20.8615 55.2105 20.025 55.8786 19.5785C56.3317 19.2783 56.5933 19.363 56.7098 19.44C56.8419 19.5272 56.9066 19.6837 56.8756 19.8428C56.8263 20.0968 56.5441 20.9949 56.4327 21.3105C56.3861 21.4439 56.3913 21.7826 56.4146 22.1264C56.4638 22.0341 56.526 21.9366 56.6036 21.8365C56.7228 21.6825 56.8548 21.6133 56.9947 21.6338C57.2459 21.6697 57.3805 21.993 57.3935 22.0289C57.4012 22.052 57.4038 22.0751 57.3986 22.1008L56.9299 24.4794C56.8471 24.8925 56.4664 25.0054 55.9381 25.1645C55.731 25.226 55.4953 25.2979 55.2364 25.398C54.7858 25.5724 52.9601 28.7003 50.4741 33.5575C50.0469 34.394 49.2027 34.902 48.3326 34.902ZM47.8121 34.5736C48.7521 34.8327 49.775 34.358 50.2437 33.442C52.103 29.8087 54.4621 25.421 55.1431 25.1593C55.4099 25.0567 55.6507 24.9848 55.863 24.9207C56.3784 24.7667 56.627 24.6821 56.6762 24.4306L57.1423 22.0854C57.1008 21.9981 57.0232 21.8904 56.961 21.8827C56.9196 21.875 56.8678 21.916 56.8108 21.9879C56.5052 22.3779 56.4742 22.7371 56.4742 22.7397C56.469 22.8064 56.4146 22.8577 56.3473 22.8577C56.2722 22.8603 56.223 22.8115 56.2152 22.7448C56.1997 22.6242 56.0676 21.5619 56.1893 21.2181C56.3084 20.8794 56.5778 20.0121 56.6218 19.7864C56.6295 19.7427 56.6218 19.6837 56.5674 19.6478C56.4845 19.5939 56.3007 19.6016 56.0236 19.7864C55.0137 20.4586 54.3896 21.1001 54.431 21.4208C54.5009 21.9622 54.286 24.3844 54.2782 24.4896C54.2756 24.5204 54.2601 24.5512 54.2394 24.5717C51.2614 27.3634 46.5225 31.9923 46.4862 32.5234C46.4422 33.0982 46.6701 34.2605 47.8121 34.5736Z" fill="#3F4553"/>
<path d="M55.3478 22.6832C55.3452 22.6832 55.3426 22.6832 55.3426 22.6832C55.2701 22.6806 55.2157 22.6191 55.2209 22.5498C55.2209 22.5421 55.2546 21.8442 55.2365 21.5029C55.2157 21.1334 55.7699 19.7889 55.8346 19.6375C55.8605 19.5708 55.9382 19.54 56.003 19.5682C56.0677 19.5939 56.1014 19.6709 56.0729 19.735C55.8424 20.2892 55.4825 21.254 55.4954 21.4901C55.5135 21.8442 55.4799 22.5344 55.4799 22.5626C55.4747 22.6293 55.4177 22.6832 55.3478 22.6832Z" fill="#263238"/>
<path d="M54.9177 22.5395L54.6588 22.5343C54.6588 22.5343 54.6769 21.7851 54.6898 21.5054C54.7028 21.2206 54.9902 20.3379 55.0213 20.2404C55.042 20.1737 55.1171 20.1352 55.1844 20.1583C55.2518 20.1789 55.2906 20.2533 55.2673 20.32C55.1818 20.5817 54.9566 21.3053 54.9462 21.5183C54.9358 21.7954 54.9177 22.5395 54.9177 22.5395Z" fill="#263238"/>
</svg>
