<svg width="164" height="146" viewBox="0 0 164 146" fill="none" xmlns="http://www.w3.org/2000/svg">
<g clip-path="url(#clip0_1_2329)">
<path d="M150.386 41H147V58H150.386V41Z" fill="#9BA3FF"/>
<path d="M155.693 46.7142H152.307V57.9997H155.693V46.7142Z" fill="#9BA3FF"/>
<path d="M161.007 52.1H157.621V58H161.007V52.1Z" fill="#9BA3FF"/>
</g>
<g clip-path="url(#clip1_1_2329)">
<path d="M85.5 146C104.554 146 120 143.314 120 140C120 136.686 104.554 134 85.5 134C66.4462 134 51 136.686 51 140C51 143.314 66.4462 146 85.5 146Z" fill="#808AFF"/>
</g>
<path d="M79.6817 62.1561C79.6817 62.1561 78.3302 77.0966 83.9285 76.8716C89.9339 76.6269 88.3185 62.1561 88.3185 62.1561C87.5337 59.8237 87.221 58.4405 87.5727 55.9939H80.2809C80.6327 58.4405 80.4633 59.8237 79.6817 62.1561Z" fill="#FDBCA0"/>
<path d="M80.4274 58.884C81.2546 59.1319 82.0883 59.3603 82.9514 59.432C83.7688 59.5005 84.609 59.4483 85.4232 59.3603C86.1006 59.2852 86.8236 59.1645 87.501 58.9395C87.3935 58.0522 87.4098 57.1388 87.5759 55.9905H80.2841C80.4437 57.1159 80.4925 58.0163 80.4274 58.884Z" fill="#F0A38B"/>
<path d="M83.9283 58.0327C86.0094 58.0327 88.0122 57.2107 89.4778 55.7297C91.2234 53.9681 92.5912 52.0043 92.9918 49.698C93.5063 46.736 92.5065 43.7772 90.3245 41.3959H77.5288C75.3468 43.774 74.347 46.736 74.8616 49.698C75.2621 52.0043 76.6332 53.9681 78.3756 55.7297C79.8444 57.2074 81.8473 58.0327 83.9283 58.0327Z" fill="#FDBCA0"/>
<path d="M84.5635 63.8982C84.2997 64.1885 84.0522 64.5049 83.8177 64.8213C83.5344 64.6256 83.3097 64.3875 83.0622 64.1428C83.0394 64.12 82.9938 64.1428 83.0035 64.1754C83.1436 64.5604 83.4367 64.8735 83.7363 65.141C83.8014 65.1965 83.8926 65.203 83.9578 65.141C84.2737 64.8311 84.5831 64.469 84.8273 64.0971C84.9315 63.9438 84.6905 63.7579 84.5635 63.8982Z" fill="#DF8370"/>
<path d="M91.6046 63.3273C89.6603 63.4936 87.7421 63.81 85.85 64.2928C85.736 64.3222 85.7848 64.4951 85.8988 64.469C87.7812 64.0514 89.6831 63.7676 91.6046 63.6372C91.8065 63.6241 91.8033 63.3109 91.6046 63.3273Z" fill="#DF8370"/>
<path d="M76.2491 63.3273C78.1934 63.4936 80.1116 63.81 82.0037 64.2928C82.1177 64.3222 82.0689 64.4951 81.9549 64.469C80.0725 64.0514 78.1706 63.7676 76.2491 63.6372C76.0504 63.6241 76.0504 63.3109 76.2491 63.3273Z" fill="#DF8370"/>
<path d="M76.5844 36.4702C73.865 38.0295 71.9501 40.4858 71.9175 43.7871C71.8849 47.5092 76.4118 53.4365 76.3499 53.2897C74.8453 49.6687 74.4512 44.6842 78.2062 42.1887C78.5808 41.9407 79.0497 41.7972 79.3852 41.5069C79.3754 39.5398 78.2909 37.6347 76.5844 36.4702Z" fill="#3F4553"/>
<path d="M91.0049 36.4702C93.7243 38.0295 95.6392 40.4858 95.6718 43.7871C95.7044 47.5092 93.48 50.8203 91.2654 53.6322C91.8289 52.4056 93.1348 44.6809 89.3798 42.1887C89.0053 41.9407 88.5363 41.7972 88.2009 41.5069C88.2139 39.5398 89.3016 37.6347 91.0049 36.4702Z" fill="#424495"/>
<path d="M130.05 34.4999C127.973 33.4658 125.546 33.244 123.286 33.7039C122.192 33.9257 121.156 34.3139 120.169 34.8391C119.515 35.1849 118.85 35.6808 118.088 35.7395C117.163 35.808 116.353 35.2045 115.665 34.6695C113.529 33.0058 111.357 31.5477 108.608 31.1464C107.279 30.9507 105.794 31.0942 104.765 31.9098C103.71 30.5136 102.137 29.5186 100.404 29.1533C98.1116 28.6705 95.9328 29.3588 94.1319 30.7419C93.1158 30.2428 91.3376 29.5251 91.1129 29.4632C84.3389 27.5972 75.0898 32.3306 76.2882 40.313C77.3174 47.1732 85.99 50.344 91.9987 48.9348C93.2949 51.3912 96.4018 51.962 98.7955 50.6833C98.9779 50.8236 99.1603 50.9638 99.3459 51.1008C103.166 53.9063 107.611 55.7298 112.412 54.9012C114.236 54.5848 115.942 53.9258 117.512 52.9798C119.004 54.102 120.967 54.4576 122.775 53.5898C124.12 52.9472 125.022 51.7598 125.344 50.4158C125.367 50.4158 125.39 50.4158 125.413 50.4158C129.405 50.3669 133.639 48.3802 134.659 44.1884C135.587 40.3782 133.522 36.2255 130.05 34.4999Z" fill="#4E5567"/>
<path d="M111.897 33.2571C113.21 34.3303 113.988 35.8015 113.171 37.4228C112.506 38.744 111.311 39.7063 110.441 40.8774C109.422 42.2475 109.246 44.0058 110.917 45.0072C112.562 45.9924 114.623 44.7658 115.994 43.8361C117.688 42.6846 119.505 39.354 120.964 37.9252C127.445 31.5803 133.88 38.3623 133.906 38.3851C133.066 36.7345 131.724 35.335 130.05 34.4999C127.972 33.4658 125.546 33.244 123.286 33.704C122.192 33.9258 121.156 34.314 120.169 34.8392C119.515 35.185 118.85 35.6808 118.088 35.7395C117.163 35.808 116.352 35.2045 115.665 34.6696C113.529 33.0059 111.357 31.5477 108.608 31.1465C107.308 30.9573 105.859 31.0943 104.833 31.8641C107.071 30.9931 110.103 31.7858 111.897 33.2571Z" fill="#3F4553"/>
<path d="M129.158 49.3394C127.572 49.5253 126.087 49.4373 124.628 48.7881C123.999 50.4224 122.713 52.0731 120.895 52.3308C119.674 52.5037 118.231 52.122 117.981 50.8269C109.396 57.8275 99.7722 50.0179 98.8441 48.5532C96.167 50.3017 92.7931 48.1683 91.7932 45.4379C89.7545 46.2306 87.4032 45.9859 85.4231 45.1345C81.7332 43.5524 79.688 39.1909 80.9777 35.3416C82.0524 32.1415 84.915 29.9526 88.0871 29.062C81.9026 29.0261 75.2621 33.4757 76.288 40.3131C77.3171 47.1733 85.9865 50.3441 91.9984 48.9349C93.2946 51.3913 96.4015 51.9622 98.7952 50.6834C98.9776 50.8237 99.16 50.9639 99.3456 51.101C103.166 53.9064 107.611 55.7299 112.412 54.9013C114.235 54.5849 115.942 53.926 117.512 52.9799C119.003 54.1021 120.967 54.4577 122.774 53.59C124.12 52.9473 125.022 51.7599 125.344 50.4159C125.367 50.4159 125.39 50.4159 125.412 50.4159C127.318 50.3931 129.275 49.9266 130.916 48.9936C130.34 49.1665 129.741 49.2709 129.158 49.3394Z" fill="#3F4553"/>
<path d="M81.642 51.4467C80.5022 51.6359 78.6491 51.6979 77.5972 50.5692C77.3887 50.3441 77.1054 50.5985 77.3659 50.8236C77.4083 50.8595 77.4506 50.8921 77.4929 50.9247C77.3692 50.9606 77.2389 50.9769 77.1021 50.9671C77.0989 50.9671 77.0989 50.9704 77.1021 50.9737C77.2682 51.0291 77.4376 51.0454 77.6037 51.0128C77.6069 51.0161 77.6102 51.0193 77.6135 51.0193C77.4702 51.1139 77.2975 51.1531 77.1282 51.2085C77.1249 51.2085 77.1249 51.2118 77.1282 51.2151C77.3366 51.2346 77.5548 51.2085 77.7274 51.0976C77.747 51.1107 77.7665 51.1172 77.7861 51.1303C77.6558 51.2314 77.5092 51.3064 77.3431 51.3456C77.3269 51.3488 77.3301 51.3749 77.3464 51.3749C77.5581 51.3847 77.76 51.3325 77.9294 51.2151C77.9652 51.2346 78.0043 51.251 78.0401 51.2705C77.9196 51.3586 77.7958 51.4369 77.6558 51.5021C77.6428 51.5087 77.6493 51.5315 77.6623 51.5315C77.8479 51.538 78.0108 51.4434 78.1573 51.3325C78.2029 51.3553 78.2485 51.3717 78.2974 51.3912C78.2355 51.4532 78.1638 51.5119 78.0954 51.5706C78.0857 51.5804 78.0954 51.5935 78.1085 51.5935C78.2257 51.5641 78.3332 51.5152 78.4244 51.4467C79.4698 51.8773 80.6943 51.8903 81.743 51.5119C81.8537 51.4663 81.769 51.4271 81.642 51.4467Z" fill="#3F4553"/>
<path d="M86.3219 51.4467C87.4618 51.6359 89.3149 51.6979 90.3668 50.5692C90.5752 50.3441 90.8585 50.5985 90.598 50.8236C90.5557 50.8595 90.5133 50.8921 90.471 50.9247C90.598 50.9606 90.725 50.9769 90.8618 50.9671C90.8651 50.9671 90.8651 50.9704 90.8618 50.9737C90.6957 51.0291 90.5264 51.0454 90.3603 51.0128C90.357 51.0161 90.3538 51.0193 90.3505 51.0193C90.4938 51.1139 90.6664 51.1531 90.8357 51.2085C90.839 51.2085 90.839 51.2118 90.8357 51.2151C90.6273 51.2346 90.4091 51.2085 90.2365 51.0976C90.217 51.1107 90.1974 51.1172 90.1779 51.1303C90.3082 51.2314 90.4547 51.3064 90.6208 51.3456C90.6371 51.3488 90.6338 51.3749 90.6175 51.3749C90.4059 51.3847 90.2039 51.3325 90.0346 51.2151C89.9988 51.2346 89.9597 51.251 89.9239 51.2705C90.0444 51.3586 90.1681 51.4369 90.3082 51.5021C90.3212 51.5087 90.3147 51.5315 90.3016 51.5315C90.116 51.538 89.9532 51.4434 89.8066 51.3325C89.761 51.3553 89.7154 51.3717 89.6698 51.3912C89.7317 51.4532 89.8034 51.5119 89.8718 51.5706C89.8815 51.5804 89.8718 51.5935 89.8587 51.5935C89.7415 51.5641 89.634 51.5152 89.5428 51.4467C88.4974 51.8773 87.2729 51.8903 86.221 51.5119C86.1135 51.4663 86.1949 51.4271 86.3219 51.4467Z" fill="#3F4553"/>
<path d="M84.7001 53.8248C84.166 54.1021 83.6352 54.213 83.0848 53.8803C83.0457 53.8575 83.0001 53.9129 83.0359 53.9455C83.5082 54.3663 84.3484 54.474 84.8206 53.9814C84.8988 53.8966 84.8011 53.7726 84.7001 53.8248Z" fill="#3F4553"/>
<path d="M85.9213 55.7493C85.2536 55.9483 84.5958 56.0233 83.9444 55.994C83.2931 56.0233 82.6352 55.9483 81.9676 55.7493C81.9513 55.7428 81.9383 55.7721 81.9546 55.7787C82.5961 56.0527 83.2703 56.1995 83.9444 56.2158C84.6186 56.1995 85.2927 56.0527 85.9343 55.7787C85.9506 55.7721 85.9375 55.746 85.9213 55.7493Z" fill="#3F4553"/>
<path d="M80.883 53.0451C80.8277 53.019 80.7691 52.9962 80.7104 52.9799C79.9647 52.7874 79.0821 52.4221 78.3037 52.5558C77.7533 52.6504 77.6263 53.3192 77.939 53.7139C78.2744 54.138 78.9323 54.2587 79.4403 54.2978C79.9516 54.3369 80.7528 54.3924 81.1338 53.9912C81.479 53.6291 81.2445 53.2213 80.883 53.0451Z" fill="#FBAD8B"/>
<path d="M86.9794 53.0451C87.0348 53.019 87.0934 52.9962 87.1521 52.9799C87.8978 52.7874 88.7804 52.4221 89.5588 52.5558C90.1092 52.6504 90.2362 53.3192 89.9235 53.7139C89.5881 54.138 88.9302 54.2587 88.4222 54.2978C87.9109 54.3369 87.1097 54.3924 86.7287 53.9912C86.3835 53.6291 86.6212 53.2213 86.9794 53.0451Z" fill="#FBAD8B"/>
<path d="M74.0931 48.1616C73.3213 48.0474 72.494 48.3671 72.6341 49.2838C72.7448 50.0145 73.5297 50.742 74.7282 50.5234C74.4025 49.7666 74.1778 48.9706 74.0931 48.1616Z" fill="#F9CDB9"/>
<path d="M73.3472 48.8794C73.5589 48.7032 73.8879 48.625 74.1712 48.6706C74.1549 48.5825 74.1451 48.4912 74.1321 48.4031C73.7446 48.3672 73.2886 48.5271 73.0672 48.8076C72.7219 49.248 72.9825 49.7373 73.3635 50.0375C73.4189 50.0831 73.497 50.0114 73.4449 49.9559C73.1681 49.6623 72.976 49.1893 73.3472 48.8794Z" fill="#F8C4AB"/>
<path d="M74.3244 49.3686C74.1225 49.1859 73.8587 49.0848 73.5558 49.0979C73.4874 49.1011 73.4614 49.2153 73.5395 49.2251C73.8163 49.2642 74.0541 49.4078 74.2006 49.6296C74.0313 49.7209 73.9075 49.9199 74.0801 50.083C74.2169 50.2135 74.4188 50.2429 74.611 50.2233C74.5035 49.9427 74.4025 49.6589 74.3244 49.3686Z" fill="#F8C4AB"/>
<path d="M74.0248 50.3114C74.0216 50.3081 74.0151 50.3114 74.0183 50.3146C74.1421 50.6213 74.318 51.3389 73.8946 51.4857C73.6112 51.5836 73.5852 51.2182 73.6275 51.0258C73.6666 50.8496 73.7643 50.6669 73.8457 50.5104C73.8457 50.5104 73.6503 50.468 73.4712 50.3766C73.2269 50.5854 73.139 50.8953 73.1814 51.2215C73.2204 51.5184 73.4093 51.8446 73.7448 51.8544C74.0444 51.8641 74.2593 51.6064 74.3049 51.3324C74.357 50.9768 74.2137 50.6017 74.0248 50.3114Z" fill="#FDCA27"/>
<path d="M136.345 106.492C134.515 104.309 130.555 104.133 127.956 103.862C120.143 103.047 112.132 103.249 104.315 103.882C100.424 104.198 96.5514 104.671 92.6955 105.295C89.9044 105.748 86.7878 106.064 84 106.958C81.2122 106.064 78.0955 105.745 75.3045 105.295C71.4518 104.668 67.5763 104.195 63.6845 103.882C55.8684 103.249 47.8536 103.047 40.0439 103.862C37.4483 104.133 33.4849 104.309 31.6546 106.492C29.8862 108.599 32.0682 111.153 33.7487 112.494C36.0707 114.347 39.0181 115.26 41.8319 116.06C45.3654 117.058 48.9804 117.736 52.6149 118.252C68.8823 120.548 77.7145 118.855 86.2178 118.751C86.5435 119.165 86.8496 119.596 87.1297 120.043C95.7503 120.098 106.823 119.41 115.382 118.252C119.02 117.759 122.631 117.061 126.165 116.06C128.982 115.264 131.926 114.35 134.248 112.494C135.929 111.153 138.111 108.599 136.345 106.492Z" fill="#93BFA8"/>
<path d="M124.803 108.002C125.074 107.656 126.712 107.229 127.357 106.942C124.318 107.187 121.267 107.552 118.235 107.865C112.467 108.459 106.693 109.989 101.228 111.904C98.6129 112.82 96.0042 113.783 93.4054 114.748C91.3471 115.512 89.3117 116.347 87.3804 117.387C87.6768 117.296 87.9732 117.205 88.2695 117.117C91.3504 116.21 103.905 109.408 127.152 108.57C126.614 108.452 124.699 108.136 124.803 108.002Z" fill="#66A986"/>
<path d="M43.5384 107.523C43.2681 107.177 41.6299 106.749 40.9851 106.462C44.0236 106.707 47.0752 107.072 50.1072 107.386C55.8749 107.979 61.649 109.509 67.1138 111.424C69.729 112.341 72.3376 113.303 74.9365 114.269C76.9948 115.032 79.0302 115.867 80.9614 116.908C80.6651 116.816 80.3687 116.725 80.0724 116.637C76.9915 115.73 64.4368 108.929 41.1903 108.09C41.7244 107.973 43.6393 107.656 43.5384 107.523Z" fill="#66A986"/>
<path d="M91.8585 114.735C90.5493 114.21 89.1652 114.197 87.8918 114.742C85.7163 115.678 83.0491 114.243 80.7889 114.5C78.7079 114.739 77.441 117.11 79.0335 118.624C79.4178 118.989 83.2803 120.392 89.3997 117.534C90.0706 117.221 90.7252 117.042 91.484 117.051C91.6599 117.055 91.826 117.221 92.0116 117.201C92.4089 117.153 92.7346 117.081 92.9561 116.696C93.4771 115.789 92.6076 115.035 91.8585 114.735Z" fill="#FDB597"/>
<path d="M76.5844 119.547C77.6884 118.669 79.0139 118.258 80.385 118.418C82.7363 118.692 84.8825 116.552 87.1231 116.151C89.1846 115.782 91.0768 117.691 89.9825 119.602C89.7187 120.062 86.4164 122.512 79.7369 121.527C79.0041 121.419 78.3267 121.436 77.6037 121.661C77.4376 121.713 77.3236 121.922 77.138 121.954C76.7439 122.023 76.4117 122.046 76.0893 121.742C75.3338 121.021 75.9526 120.049 76.5844 119.547Z" fill="#FDBCA0"/>
<path d="M120.967 65.9565C120.214 66.3447 119.423 66.7818 118.684 67.1896C119.075 66.8699 121.244 64.6582 122.087 64.1134C122.178 64.0547 121.963 63.1576 119.745 64.9322C119.084 65.4607 118.303 65.9956 117.681 66.573C118.472 65.0692 119.133 63.5458 120.169 62.1692C120.211 62.1137 120.198 62.0517 120.162 62.0093C119.951 61.843 119.42 62.0322 119.182 62.2866C118.759 62.7368 117.15 64.4788 116.368 66.3153C116.381 65.6857 116.326 64.6647 115.88 64.4559C115.6 64.3222 115.134 64.4983 114.834 64.5212C114.245 64.5636 113.473 64.6484 112.923 64.4135C112.841 64.3809 112.636 64.3548 112.711 64.6256C112.962 65.5128 114.199 65.6238 114.968 65.8195C115.228 66.4523 114.496 67.4897 114.033 67.8029C113.281 68.315 112.183 67.8126 112.372 66.8079C112.538 65.9239 113.066 65.5226 112.6 64.6549C112.447 64.3678 111.789 64.1069 111.936 64.5701C112.314 65.7542 111.229 66.7492 111.089 67.8942C110.978 68.8011 111.457 69.6068 111.939 70.3343C111.91 70.4093 111.887 70.4843 111.861 70.5561C111.206 71.6913 110.698 72.8885 110.33 74.1412C111.17 74.4185 113.639 74.2423 113.629 74.2227C113.639 74.2423 113.926 72.4873 114.584 71.7468C115.303 70.9345 116.209 70.3082 117.075 69.6688C118.895 68.3215 120.745 67.0134 122.621 65.7412C122.729 65.6727 122.641 65.092 120.967 65.9565Z" fill="#FDBCA0"/>
<path d="M47.2314 65.9565C47.9837 66.3447 48.7751 66.7818 49.5144 67.1896C49.1236 66.8699 46.9546 64.6582 46.1111 64.1134C46.0199 64.0547 46.2349 63.1576 48.4527 64.9322C49.1138 65.4607 49.8954 65.9956 50.5175 66.573C49.7261 65.0692 49.065 63.5458 48.0293 62.1692C47.987 62.1137 48 62.0517 48.0358 62.0093C48.2475 61.843 48.7784 62.0322 49.0161 62.2866C49.4395 62.7368 51.0483 64.4788 51.8299 66.3153C51.8169 65.6857 51.8723 64.6647 52.3184 64.4559C52.5985 64.3222 53.0642 64.4983 53.3638 64.5212C53.9533 64.5636 54.7251 64.6484 55.2755 64.4135C55.357 64.3809 55.5621 64.3548 55.4872 64.6256C55.2365 65.5128 53.9989 65.6238 53.2303 65.8195C52.9698 66.4523 53.7025 67.4897 54.165 67.8029C54.9173 68.315 56.0148 67.8126 55.8259 66.8079C55.6598 65.9239 55.1322 65.5226 55.598 64.6549C55.751 64.3678 56.4089 64.1069 56.2623 64.5701C55.8845 65.7542 56.969 66.7492 57.1091 67.8942C57.2198 68.8011 56.7411 69.6068 56.2591 70.3343C56.2884 70.4093 56.3112 70.4843 56.3372 70.5561C56.9918 71.6913 57.4999 72.8885 57.8679 74.1412C57.0277 74.4185 54.5591 74.2423 54.5688 74.2227C54.5591 74.2423 54.2725 72.4873 53.6146 71.7468C52.8949 70.9345 51.9895 70.3082 51.1232 69.6688C49.3027 68.3215 47.4529 67.0134 45.577 65.7412C45.4695 65.6727 45.5575 65.092 47.2314 65.9565Z" fill="#FDBCA0"/>
<path d="M109.451 72.9864C108.23 76.1409 104.088 87.7867 102.358 92.7256C101.329 90.0833 98.5479 78.6104 96.2063 65.2911C95.4768 61.1514 90.8164 61.7419 88.3218 62.1562C88.1426 64.9355 85.4493 72.6407 84.0033 72.657C82.5574 72.6407 79.6914 65.4803 79.6849 62.1562C77.1935 61.7419 72.5299 61.1514 71.8004 65.2911C69.4555 78.6104 66.6776 90.0865 65.6484 92.7256C63.9158 87.7867 59.7765 76.1409 58.5553 72.9864C56.9888 73.7269 55.2562 74.1347 53.5269 74.2358C54.8654 77.8013 59.2848 103.05 65.7982 103.05C68.6218 103.05 70.4098 100.046 73.2887 88.9154C73.432 90.7748 73.4809 94.3469 73.4092 98.1016C73.3571 100.806 71.491 103.931 68.9931 103.327C68.4883 103.207 67.8304 103.588 68.4557 104.267C68.6251 104.453 68.8433 104.59 69.068 104.694C73.0575 106.586 73.2138 109.415 75.5684 111.062C76.9916 112.057 78.7437 112.37 80.4144 112.709C82.2252 113.075 84.0913 113.349 85.9346 113.071C88.9992 112.612 91.3798 110.56 93.9168 108.955C95.3335 108.058 96.773 107.34 98.4372 107.095C102.72 106.466 102.436 103.438 101.541 103.5C98.5414 103.706 94.591 99.8762 94.5682 95.6615C94.5519 92.8561 94.6073 90.3671 94.718 88.9154C97.5969 100.046 99.3849 103.05 102.208 103.05C108.722 103.05 113.141 77.8013 114.48 74.2358C112.75 74.1347 111.018 73.7237 109.451 72.9864Z" fill="#F2EDE4"/>
<path d="M92.2203 84.0124C92.1877 84.0352 92.1616 84.0581 92.1356 84.0809C91.6047 84.5996 91.1911 85.2226 90.67 85.7511C90.149 86.2763 89.4748 86.7167 88.7355 86.7134C86.9606 86.7036 86.0715 84.5702 85.0033 83.4839C83.3619 81.8202 81.7694 85.6108 80.5481 86.3546C79.2943 87.1179 78.4443 86.658 77.5194 85.7544C76.9527 85.1998 76.4707 84.5767 75.9464 83.983C75.8096 83.8264 75.4969 83.9928 75.5816 84.1951C76.1939 85.6695 77.578 88.1161 79.405 88.1553C80.5253 88.1781 81.4437 87.5355 82.1797 86.746C82.5412 86.3578 83.5378 84.2733 84.1859 84.5474C84.3064 84.5996 84.3911 84.7072 84.4725 84.8116C84.7949 85.2357 85.0945 85.6826 85.4397 86.0871C85.6189 86.2959 86.1367 86.6417 86.1367 86.9287C86.8694 87.6757 87.8758 88.2629 88.9147 88.1357C89.9764 88.0052 90.8166 87.1734 91.4321 86.2959C91.8685 85.6728 92.2365 85.0008 92.5264 84.2962C92.5687 84.1951 92.6045 84.0678 92.5296 83.9863C92.4482 83.9015 92.3245 83.9406 92.2203 84.0124Z" fill="#D9C9AC"/>
<g clip-path="url(#clip2_1_2329)">
<path d="M151.99 100.955L163.135 97.2196L157.548 80.8198L146.403 84.5555C145.966 84.7012 145.729 85.1707 145.88 85.6038L150.933 100.433C151.08 100.866 151.553 101.101 151.99 100.955Z" fill="#3F4553"/>
<path d="M151.998 100.631L163.421 96.8027L158.038 81.006L146.615 84.8348C146.333 84.9279 146.182 85.2314 146.276 85.5147L151.312 100.296C151.41 100.575 151.716 100.725 151.998 100.631Z" fill="#DDDDE3"/>
<path d="M152.239 100.551L163.662 96.7219L158.279 80.9252L146.856 84.754C146.574 84.8471 146.423 85.1506 146.517 85.4339L151.553 100.215C151.651 100.494 151.957 100.648 152.239 100.551Z" fill="#E2E5FF"/>
<path d="M152.855 100.664L164 96.9282L158.413 80.5324L147.268 84.2681C146.831 84.4138 146.594 84.8833 146.745 85.3164L151.798 100.146C151.945 100.579 152.418 100.81 152.855 100.664Z" fill="#4E5567"/>
<path d="M157.789 80.742L157.549 80.8223L163.136 97.2222L163.376 97.1418L157.789 80.742Z" fill="#3F4553"/>
<path d="M159.381 93.5527L159.63 93.0265L160.152 93.2937L156.071 81.3176C155.997 81.1072 155.814 81.1234 155.602 81.1962C155.389 81.2691 155.23 81.3662 155.304 81.5767L159.381 93.5527Z" fill="#93BFA8"/>
<path d="M134.338 85.0902L141.84 76.2699L140.323 75.0017L132.822 83.8221L134.338 85.0902Z" fill="#3F4553"/>
<path d="M132.821 83.8191L134.335 85.0859L132.147 86.2799C132.074 86.3203 131.976 86.2353 132 86.1584L132.821 83.8191Z" fill="#F2EDE4"/>
<path d="M132.151 86.2838L132.743 85.96L132.229 85.5269L132.009 86.1583C131.98 86.2352 132.078 86.3202 132.151 86.2838Z" fill="#3F4553"/>
<path d="M133.836 84.6701L141.337 75.8497L140.822 75.4192L133.321 84.2396L133.836 84.6701Z" fill="#4E5567"/>
</g>
<g clip-path="url(#clip3_1_2329)">
<path d="M51.5028 0C41.8335 0 34 7.83352 34 17.5028C34 27.1665 41.8335 35.0055 51.5028 35.0055C61.1665 35.0055 69.0055 27.172 69.0055 17.5028C69 7.83352 61.1665 0 51.5028 0ZM51.5028 32.0452C43.4708 32.0452 36.9603 25.5347 36.9603 17.5028C36.9603 9.47078 43.4708 2.96031 51.5028 2.96031C59.5347 2.96031 66.0452 9.47078 66.0452 17.5028C66.0452 25.5347 59.5347 32.0452 51.5028 32.0452Z" fill="#808AFF"/>
<path d="M64.9209 23.1097C68.0195 15.6998 64.5244 7.18094 57.1145 4.08236C49.7046 0.983783 41.1857 4.47882 38.0872 11.8887C34.9886 19.2987 38.4836 27.8175 45.8936 30.9161C53.3035 34.0147 61.8223 30.5196 64.9209 23.1097Z" fill="#AEB4FC"/>
<path d="M51.5311 4.26149C50.5113 4.26149 50.5058 5.84914 51.5311 5.84914C52.5565 5.84914 52.5565 4.26149 51.5311 4.26149Z" fill="#808AFF"/>
<path d="M64.7383 17.5296C64.7383 16.5098 63.1506 16.5042 63.1506 17.5296C63.1506 18.555 64.7383 18.555 64.7383 17.5296Z" fill="#808AFF"/>
<path d="M51.469 30.7383C52.4888 30.7383 52.4943 29.1507 51.469 29.1507C50.4491 29.1507 50.4436 30.7383 51.469 30.7383Z" fill="#808AFF"/>
<path d="M38.2618 17.4698C38.2618 18.4896 39.8495 18.4951 39.8495 17.4698C39.8495 16.4499 38.2618 16.4444 38.2618 17.4698Z" fill="#808AFF"/>
<path d="M57.7544 21.753C57.6607 21.753 57.567 21.731 57.4843 21.6758L51.2274 17.9548C51.0675 17.8611 50.9683 17.6846 50.9683 17.4972V7.49722C50.9683 7.20505 51.2053 6.968 51.4975 6.968C51.7897 6.968 52.0267 7.20505 52.0267 7.49722V17.1995L58.0245 20.7662C58.2781 20.9151 58.3608 21.2403 58.2064 21.4939C58.1127 21.6593 57.9363 21.753 57.7544 21.753Z" fill="#808AFF"/>
</g>
<path d="M16.6207 53.4065L16.2715 51.4255L14.2463 51.7707C13.925 50.8457 13.4013 50.0312 12.7239 49.3686L13.9111 47.7051L12.249 46.5524L11.0688 48.209C10.2168 47.7948 9.26706 47.567 8.27541 47.5739L7.91925 45.5653L5.915 45.9104L6.26417 47.9121C5.32839 48.2297 4.50434 48.7474 3.83392 49.4169L2.15091 48.2435L0.984669 49.8863L2.6607 51.0528C2.24169 51.8949 2.01124 52.8336 2.01822 53.8138L0 54.1589L0.349173 56.1399L2.37438 55.7948C2.69562 56.7198 3.21938 57.5342 3.89677 58.1969L2.70959 59.8604L4.37165 61.0131L5.55186 59.3565C6.40384 59.7707 7.35359 59.9984 8.34524 59.9915L8.7014 62.0002L10.7057 61.655L10.3565 59.6533C11.2923 59.3358 12.1163 58.8181 12.7867 58.1486L14.4697 59.322L15.636 57.6792L13.96 56.5127C14.379 55.6706 14.6094 54.7318 14.6024 53.7517L16.6207 53.4065ZM8.63157 55.6223C7.605 55.8017 6.62731 55.1184 6.44574 54.1037C6.26417 53.089 6.95553 52.1227 7.9821 51.9432C9.00867 51.7637 9.98636 52.4471 10.1679 53.4618C10.3495 54.4764 9.66512 55.4428 8.63157 55.6223Z" fill="#9BA3FF"/>
<path d="M35.7278 49.4099V46.918H33.1788C32.9903 45.717 32.5224 44.6126 31.838 43.6601L33.6467 41.8723L31.8659 40.1122L30.0642 41.893C29.1074 41.2097 27.9971 40.7334 26.782 40.5332V38H24.2609V40.5194C23.0458 40.7058 21.9215 41.1683 20.9647 41.8447L19.156 40.0569L17.3752 41.8171L19.177 43.5979C18.4856 44.5436 18.0037 45.6411 17.8012 46.8421H15.2383V49.3339H17.7872C17.9758 50.535 18.4437 51.6394 19.1281 52.5919L17.3194 54.3797L19.1001 56.1398L20.9019 54.3589C21.8586 55.0423 22.969 55.5186 24.1841 55.7187V58.252H26.7051V55.7325C27.9203 55.5462 29.0376 55.0837 30.0013 54.4073L31.81 56.195L33.5908 54.4349L31.7891 52.654C32.4805 51.7084 32.9623 50.6109 33.1648 49.4099H35.7278ZM25.483 50.4452C24.1911 50.4452 23.1366 49.4099 23.1366 48.126C23.1366 46.849 24.1841 45.8067 25.483 45.8067C26.775 45.8067 27.8295 46.8421 27.8295 48.126C27.8225 49.4029 26.775 50.4452 25.483 50.4452Z" fill="#AEB4FC"/>
<g opacity="0.3">
<path d="M153.995 30.8971L135.266 26.6877C135.082 26.6476 134.966 26.4642 135.009 26.2807L137.367 15.7805C137.407 15.5971 137.591 15.4803 137.774 15.5237L156.503 19.7364C156.687 19.7765 156.803 19.9599 156.76 20.1434L154.398 30.6436C154.358 30.8237 154.178 30.9405 153.995 30.8971Z" fill="#ECECEC"/>
<path d="M135.319 26.4408C135.269 26.4308 135.239 26.3808 135.253 26.3341L137.614 15.8339C137.624 15.7838 137.674 15.7538 137.721 15.7671L156.45 19.9799C156.5 19.9899 156.53 20.04 156.517 20.0867L154.155 30.5869C154.145 30.6369 154.095 30.6669 154.048 30.6536L135.319 26.4408Z" fill="#F5F4F5"/>
<path d="M153.867 19.1406L140.414 16.1153L140.359 16.3593L153.812 19.3847L153.867 19.1406Z" fill="#706F6E"/>
<path d="M139.105 17.625L138.485 17.4849C138.408 17.4682 138.358 17.3915 138.375 17.3114L138.471 16.8745C138.488 16.7978 138.565 16.7477 138.645 16.7644L139.265 16.9045C139.342 16.9212 139.392 16.9979 139.375 17.078L139.279 17.5149C139.259 17.5916 139.182 17.6417 139.105 17.625Z" fill="#585857"/>
<path d="M138.511 17.3615C138.501 17.3582 138.494 17.3482 138.498 17.3382L138.594 16.9012C138.598 16.8912 138.608 16.8845 138.618 16.8879L139.238 17.028C139.248 17.0313 139.255 17.0413 139.252 17.0513L139.155 17.4883C139.152 17.4983 139.142 17.5049 139.132 17.5016L138.511 17.3615Z" fill="#5E5E5D"/>
<path d="M140.242 17.8786L139.622 17.7385C139.545 17.7218 139.495 17.6451 139.512 17.565L139.609 17.1281C139.625 17.0514 139.702 17.0013 139.782 17.018L140.402 17.1581C140.479 17.1748 140.529 17.2515 140.512 17.3316L140.416 17.7685C140.396 17.8486 140.319 17.8953 140.242 17.8786Z" fill="#585857"/>
<path d="M139.649 17.6182C139.639 17.6149 139.632 17.6049 139.635 17.5949L139.732 17.1579C139.735 17.1479 139.745 17.1413 139.755 17.1446L140.376 17.2847C140.386 17.288 140.392 17.298 140.389 17.308L140.292 17.745C140.289 17.755 140.279 17.7617 140.269 17.7583L139.649 17.6182Z" fill="#5E5E5D"/>
<path d="M141.38 18.1353L140.759 17.9952C140.683 17.9785 140.633 17.9018 140.649 17.8218L140.746 17.3848C140.763 17.3081 140.839 17.2581 140.92 17.2747L141.54 17.4148C141.617 17.4315 141.667 17.5082 141.65 17.5883L141.553 18.0252C141.533 18.102 141.457 18.152 141.38 18.1353Z" fill="#585857"/>
<path d="M140.786 17.8718C140.776 17.8685 140.769 17.8585 140.773 17.8485L140.87 17.4115C140.873 17.4015 140.883 17.3949 140.893 17.3982L141.513 17.5383C141.523 17.5416 141.53 17.5516 141.527 17.5616L141.43 17.9986C141.427 18.0086 141.417 18.0153 141.407 18.0119L140.786 17.8718Z" fill="#5E5E5D"/>
<path d="M142.517 18.3887L141.897 18.2486C141.82 18.2319 141.77 18.1552 141.787 18.0751L141.884 17.6382C141.9 17.5615 141.977 17.5114 142.057 17.5281L142.677 17.6682C142.754 17.6849 142.804 17.7616 142.787 17.8417L142.691 18.2786C142.671 18.3587 142.594 18.4087 142.517 18.3887Z" fill="#585857"/>
<path d="M141.924 18.1286C141.914 18.1252 141.907 18.1152 141.91 18.1052L142.007 17.6683C142.01 17.6583 142.02 17.6516 142.03 17.6549L142.651 17.795C142.661 17.7983 142.667 17.8084 142.664 17.8184L142.567 18.2553C142.564 18.2653 142.554 18.272 142.544 18.2687L141.924 18.1286Z" fill="#5E5E5D"/>
<path d="M143.651 18.6456L143.031 18.5055C142.954 18.4889 142.904 18.4121 142.921 18.3321L143.018 17.8951C143.034 17.8184 143.111 17.7684 143.191 17.7851L143.811 17.9252C143.888 17.9418 143.938 18.0185 143.921 18.0986L143.825 18.5356C143.808 18.6156 143.731 18.6623 143.651 18.6456Z" fill="#585857"/>
<path d="M143.061 18.3855C143.051 18.3822 143.044 18.3722 143.048 18.3622L143.145 17.9252C143.148 17.9152 143.158 17.9085 143.168 17.9119L143.788 18.052C143.798 18.0553 143.805 18.0653 143.802 18.0753L143.705 18.5123C143.702 18.5223 143.692 18.5289 143.682 18.5256L143.061 18.3855Z" fill="#5E5E5D"/>
<path d="M144.789 18.9024L144.168 18.7623C144.092 18.7456 144.042 18.6689 144.058 18.5888L144.155 18.1519C144.172 18.0751 144.248 18.0251 144.329 18.0418L144.949 18.1819C145.026 18.1986 145.076 18.2753 145.059 18.3553L144.962 18.7923C144.946 18.869 144.869 18.919 144.789 18.9024Z" fill="#585857"/>
<path d="M144.198 18.6389C144.188 18.6356 144.182 18.6255 144.185 18.6155L144.282 18.1786C144.285 18.1686 144.295 18.1619 144.305 18.1652L144.925 18.3053C144.935 18.3087 144.942 18.3187 144.939 18.3287L144.842 18.7656C144.839 18.7756 144.829 18.7823 144.819 18.779L144.198 18.6389Z" fill="#5E5E5D"/>
<path d="M145.926 19.156L145.306 19.0159C145.229 18.9992 145.179 18.9225 145.196 18.8424L145.293 18.4055C145.309 18.3287 145.386 18.2787 145.466 18.2954L146.086 18.4355C146.163 18.4522 146.213 18.5289 146.196 18.6089L146.1 19.0459C146.083 19.1259 146.003 19.176 145.926 19.156Z" fill="#585857"/>
<path d="M145.336 18.8958C145.326 18.8925 145.319 18.8825 145.322 18.8725L145.419 18.4355C145.422 18.4255 145.433 18.4189 145.443 18.4222L146.063 18.5623C146.073 18.5656 146.08 18.5756 146.076 18.5856L145.98 19.0226C145.976 19.0326 145.966 19.0393 145.956 19.0359L145.336 18.8958Z" fill="#5E5E5D"/>
<path d="M147.064 19.4129L146.443 19.2728C146.367 19.2561 146.317 19.1794 146.333 19.0994L146.43 18.6624C146.447 18.5857 146.524 18.5357 146.604 18.5523L147.224 18.6924C147.301 18.7091 147.351 18.7858 147.334 18.8659L147.237 19.3028C147.217 19.3829 147.141 19.4296 147.064 19.4129Z" fill="#585857"/>
<path d="M146.473 19.1526C146.463 19.1492 146.457 19.1392 146.46 19.1292L146.557 18.6922C146.56 18.6822 146.57 18.6756 146.58 18.6789L147.2 18.819C147.21 18.8223 147.217 18.8323 147.214 18.8423L147.117 19.2793C147.114 19.2893 147.104 19.296 147.094 19.2926L146.473 19.1526Z" fill="#5E5E5D"/>
<path d="M148.201 19.6696L147.581 19.5295C147.504 19.5129 147.454 19.4361 147.471 19.3561L147.568 18.9191C147.584 18.8424 147.661 18.7924 147.741 18.8091L148.361 18.9491C148.438 18.9658 148.488 19.0425 148.472 19.1226L148.375 19.5596C148.355 19.6363 148.278 19.6863 148.201 19.6696Z" fill="#585857"/>
<path d="M147.607 19.4062C147.597 19.4028 147.591 19.3928 147.594 19.3828L147.691 18.9459C147.694 18.9358 147.704 18.9292 147.714 18.9325L148.334 19.0726C148.344 19.0759 148.351 19.0859 148.348 19.0959L148.251 19.5329C148.248 19.5429 148.238 19.5496 148.228 19.5462L147.607 19.4062Z" fill="#5E5E5D"/>
<path d="M149.338 19.9232L148.718 19.7831C148.641 19.7665 148.591 19.6897 148.608 19.6097L148.705 19.1727C148.721 19.096 148.798 19.046 148.878 19.0627L149.499 19.2028C149.575 19.2194 149.625 19.2961 149.609 19.3762L149.512 19.8132C149.492 19.8932 149.415 19.9432 149.338 19.9232Z" fill="#585857"/>
<path d="M148.745 19.6631C148.735 19.6598 148.728 19.6498 148.731 19.6398L148.828 19.2028C148.831 19.1928 148.842 19.1861 148.852 19.1895L149.472 19.3296C149.482 19.3329 149.489 19.3429 149.485 19.3529L149.389 19.7899C149.385 19.7999 149.375 19.8065 149.365 19.8032L148.745 19.6631Z" fill="#5E5E5D"/>
<path d="M150.476 20.1799L149.856 20.0399C149.779 20.0232 149.729 19.9465 149.745 19.8664L149.842 19.4295C149.859 19.3527 149.936 19.3027 150.016 19.3194L150.636 19.4595C150.713 19.4761 150.763 19.5529 150.746 19.6329L150.649 20.0699C150.629 20.1499 150.553 20.1966 150.476 20.1799Z" fill="#585857"/>
<path d="M149.882 19.9198C149.872 19.9165 149.865 19.9065 149.868 19.8965L149.965 19.4595C149.969 19.4495 149.979 19.4428 149.989 19.4462L150.609 19.5863C150.619 19.5896 150.626 19.5996 150.622 19.6096L150.526 20.0466C150.522 20.0566 150.512 20.0633 150.502 20.0599L149.882 19.9198Z" fill="#5E5E5D"/>
<path d="M151.613 20.4369L150.993 20.2968C150.916 20.2801 150.866 20.2034 150.883 20.1234L150.979 19.6864C150.996 19.6097 151.073 19.5597 151.153 19.5763L151.773 19.7164C151.85 19.7331 151.9 19.8098 151.883 19.8899L151.787 20.3268C151.766 20.4035 151.69 20.4536 151.613 20.4369Z" fill="#585857"/>
<path d="M151.019 20.1732C151.009 20.1699 151.003 20.1599 151.006 20.1499L151.103 19.7129C151.106 19.7029 151.116 19.6962 151.126 19.6996L151.747 19.8397C151.757 19.843 151.763 19.853 151.76 19.863L151.663 20.3C151.66 20.31 151.65 20.3166 151.64 20.3133L151.019 20.1732Z" fill="#5E5E5D"/>
<path d="M152.751 20.6903L152.13 20.5502C152.053 20.5335 152.003 20.4568 152.02 20.3767L152.117 19.9398C152.133 19.8631 152.21 19.813 152.29 19.8297L152.911 19.9698C152.987 19.9865 153.037 20.0632 153.021 20.1432L152.924 20.5802C152.904 20.6602 152.827 20.7103 152.751 20.6903Z" fill="#585857"/>
<path d="M152.157 20.4301C152.147 20.4268 152.14 20.4168 152.144 20.4068L152.24 19.9698C152.244 19.9598 152.254 19.9532 152.264 19.9565L152.884 20.0966C152.894 20.0999 152.901 20.1099 152.897 20.1199L152.801 20.5569C152.797 20.5669 152.787 20.5736 152.777 20.5702L152.157 20.4301Z" fill="#5E5E5D"/>
<path d="M153.888 20.947L153.268 20.8069C153.191 20.7902 153.141 20.7135 153.158 20.6335L153.254 20.1965C153.271 20.1198 153.348 20.0698 153.428 20.0864L154.048 20.2265C154.125 20.2432 154.175 20.3199 154.158 20.4L154.062 20.8369C154.042 20.917 153.965 20.9637 153.888 20.947Z" fill="#585857"/>
<path d="M153.294 20.6871C153.284 20.6838 153.278 20.6738 153.281 20.6637L153.378 20.2268C153.381 20.2168 153.391 20.2101 153.401 20.2135L154.022 20.3535C154.032 20.3569 154.038 20.3669 154.035 20.3769L153.938 20.8138C153.935 20.8239 153.925 20.8305 153.915 20.8272L153.294 20.6871Z" fill="#5E5E5D"/>
<path d="M155.022 21.2039L154.402 21.0638C154.325 21.0472 154.275 20.9705 154.292 20.8904L154.388 20.4534C154.405 20.3767 154.482 20.3267 154.562 20.3434L155.182 20.4835C155.259 20.5001 155.309 20.5769 155.292 20.6569L155.195 21.0939C155.179 21.1706 155.102 21.2206 155.022 21.2039Z" fill="#585857"/>
<path d="M154.432 20.9405C154.422 20.9371 154.415 20.9271 154.419 20.9171L154.515 20.4802C154.519 20.4702 154.529 20.4635 154.539 20.4668L155.159 20.6069C155.169 20.6103 155.176 20.6203 155.172 20.6303L155.076 21.0672C155.072 21.0772 155.062 21.0839 155.052 21.0806L154.432 20.9405Z" fill="#5E5E5D"/>
<path d="M138.471 17.6351L139.238 17.8086C139.325 17.8286 139.382 17.9153 139.362 18.0054L139.192 18.7592C139.172 18.8459 139.085 18.9026 138.995 18.8826L138.228 18.7091C138.141 18.6891 138.084 18.6024 138.104 18.5123L138.274 17.7585C138.294 17.6718 138.381 17.6151 138.471 17.6351Z" fill="#585857"/>
<path d="M138.258 18.5855C138.238 18.5821 138.225 18.5588 138.228 18.5388L138.398 17.7849C138.401 17.7649 138.425 17.7516 138.445 17.7549L139.212 17.9284C139.232 17.9317 139.245 17.9551 139.242 17.9751L139.072 18.7289C139.069 18.7489 139.045 18.7623 139.025 18.7589L138.258 18.5855Z" fill="#5E5E5D"/>
<path d="M139.782 17.9317L140.549 18.1051C140.636 18.1252 140.692 18.2119 140.672 18.3019L140.502 19.0558C140.482 19.1425 140.396 19.1992 140.306 19.1792L139.538 19.0057C139.452 18.9857 139.395 18.899 139.415 18.8089L139.585 18.0551C139.605 17.9651 139.692 17.9117 139.782 17.9317Z" fill="#585857"/>
<path d="M139.569 18.8823C139.549 18.879 139.535 18.8557 139.539 18.8357L139.709 18.0818C139.712 18.0618 139.735 18.0485 139.755 18.0518L140.523 18.2253C140.543 18.2286 140.556 18.2519 140.553 18.2719L140.382 19.0258C140.379 19.0458 140.356 19.0591 140.336 19.0558L139.569 18.8823Z" fill="#5E5E5D"/>
<path d="M141.093 18.2255L141.861 18.3989C141.947 18.419 142.004 18.5057 141.984 18.5957L141.814 19.3496C141.794 19.4363 141.707 19.493 141.617 19.473L140.85 19.2995C140.763 19.2795 140.706 19.1928 140.726 19.1027L140.897 18.3489C140.917 18.2622 141.007 18.2055 141.093 18.2255Z" fill="#585857"/>
<path d="M140.88 19.1759C140.86 19.1725 140.846 19.1492 140.85 19.1292L141.02 18.3753C141.023 18.3553 141.046 18.342 141.066 18.3453L141.834 18.5188C141.854 18.5221 141.867 18.5455 141.864 18.5655L141.693 19.3193C141.69 19.3393 141.667 19.3527 141.647 19.3493L140.88 19.1759Z" fill="#5E5E5D"/>
<path d="M142.404 18.519L143.171 18.6925C143.258 18.7125 143.315 18.7992 143.295 18.8893L143.124 19.6431C143.104 19.7298 143.018 19.7865 142.928 19.7665L142.16 19.5931C142.074 19.5731 142.017 19.4863 142.037 19.3963L142.207 18.6424C142.227 18.5557 142.317 18.499 142.404 18.519Z" fill="#585857"/>
<path d="M142.191 19.4727C142.171 19.4694 142.157 19.4461 142.161 19.426L142.331 18.6722C142.334 18.6522 142.357 18.6389 142.377 18.6422L143.145 18.8156C143.165 18.819 143.178 18.8423 143.175 18.8623L143.005 19.6162C143.001 19.6362 142.978 19.6495 142.958 19.6462L142.191 19.4727Z" fill="#5E5E5D"/>
<path d="M143.715 18.8158L144.482 18.9893C144.568 19.0093 144.625 19.096 144.605 19.1861L144.435 19.9399C144.415 20.0266 144.328 20.0833 144.238 20.0633L143.471 19.8899C143.384 19.8699 143.328 19.7831 143.348 19.6931L143.518 18.9393C143.541 18.8492 143.628 18.7958 143.715 18.8158Z" fill="#585857"/>
<path d="M143.501 19.7663C143.481 19.7629 143.468 19.7396 143.471 19.7196L143.641 18.9657C143.645 18.9457 143.668 18.9324 143.688 18.9357L144.455 19.1092C144.475 19.1125 144.489 19.1359 144.485 19.1559L144.315 19.9097C144.312 19.9297 144.288 19.9431 144.268 19.9397L143.501 19.7663Z" fill="#5E5E5D"/>
<path d="M145.026 19.1094L145.793 19.2829C145.879 19.3029 145.936 19.3896 145.916 19.4797L145.746 20.2335C145.726 20.3202 145.639 20.3769 145.549 20.3569L144.782 20.1835C144.695 20.1634 144.639 20.0767 144.659 19.9867L144.829 19.2328C144.852 19.1461 144.939 19.0894 145.026 19.1094Z" fill="#585857"/>
<path d="M144.812 20.06C144.792 20.0567 144.779 20.0333 144.782 20.0133L144.952 19.2595C144.955 19.2395 144.979 19.2261 144.999 19.2295L145.766 19.4029C145.786 19.4063 145.799 19.4296 145.796 19.4496L145.626 20.2034C145.622 20.2235 145.599 20.2368 145.579 20.2335L144.812 20.06Z" fill="#5E5E5D"/>
<path d="M146.337 19.406L147.104 19.5795C147.191 19.5995 147.247 19.6862 147.227 19.7763L147.057 20.5301C147.037 20.6168 146.95 20.6735 146.86 20.6535L146.093 20.48C146.006 20.46 145.95 20.3733 145.97 20.2833L146.14 19.5294C146.163 19.4394 146.25 19.386 146.337 19.406Z" fill="#585857"/>
<path d="M146.123 20.3567C146.103 20.3533 146.09 20.33 146.093 20.31L146.263 19.5561C146.266 19.5361 146.29 19.5228 146.31 19.5261L147.077 19.6996C147.097 19.7029 147.11 19.7262 147.107 19.7463L146.937 20.5001C146.933 20.5201 146.91 20.5334 146.89 20.5301L146.123 20.3567Z" fill="#5E5E5D"/>
<path d="M147.651 19.6998L148.418 19.8733C148.505 19.8933 148.561 19.98 148.541 20.0701L148.371 20.8239C148.351 20.9106 148.265 20.9673 148.174 20.9473L147.407 20.7739C147.321 20.7538 147.264 20.6671 147.284 20.5771L147.454 19.8232C147.474 19.7365 147.561 19.6798 147.651 19.6998Z" fill="#585857"/>
<path d="M147.434 20.6504C147.414 20.6471 147.401 20.6237 147.404 20.6037L147.574 19.8499C147.577 19.8299 147.601 19.8165 147.621 19.8199L148.388 19.9933C148.408 19.9967 148.421 20.02 148.418 20.04L148.248 20.7938C148.245 20.8139 148.221 20.8272 148.201 20.8239L147.434 20.6504Z" fill="#5E5E5D"/>
<path d="M148.961 19.9931L149.729 20.1666C149.815 20.1866 149.872 20.2733 149.852 20.3634L149.682 21.1172C149.662 21.2039 149.575 21.2606 149.485 21.2406L148.718 21.0672C148.631 21.0471 148.574 20.9604 148.595 20.8704L148.765 20.1165C148.785 20.0298 148.871 19.9731 148.961 19.9931Z" fill="#585857"/>
<path d="M148.748 20.9471C148.728 20.9437 148.715 20.9204 148.718 20.9004L148.888 20.1465C148.892 20.1265 148.915 20.1132 148.935 20.1165L149.702 20.29C149.722 20.2933 149.735 20.3166 149.732 20.3367L149.562 21.0905C149.559 21.1105 149.535 21.1238 149.515 21.1205L148.748 20.9471Z" fill="#5E5E5D"/>
<path d="M150.272 20.2902L151.04 20.4636C151.126 20.4836 151.183 20.5703 151.163 20.6604L150.993 21.4142C150.973 21.501 150.886 21.5577 150.796 21.5376L150.029 21.3642C149.942 21.3442 149.886 21.2575 149.906 21.1674L150.076 20.4136C150.096 20.3235 150.182 20.2701 150.272 20.2902Z" fill="#585857"/>
<path d="M150.059 21.2408C150.039 21.2375 150.025 21.2141 150.029 21.1941L150.199 20.4403C150.202 20.4203 150.226 20.4069 150.246 20.4103L151.013 20.5837C151.033 20.587 151.046 20.6104 151.043 20.6304L150.873 21.3842C150.869 21.4042 150.846 21.4176 150.826 21.4143L150.059 21.2408Z" fill="#5E5E5D"/>
<path d="M151.583 20.5835L152.35 20.757C152.437 20.777 152.494 20.8637 152.474 20.9538L152.304 21.7076C152.284 21.7943 152.197 21.851 152.107 21.831L151.343 21.6576C151.256 21.6375 151.2 21.5508 151.22 21.4608L151.39 20.7069C151.407 20.6202 151.493 20.5635 151.583 20.5835Z" fill="#585857"/>
<path d="M151.37 21.5343C151.35 21.531 151.336 21.5076 151.34 21.4876L151.51 20.7338C151.513 20.7138 151.537 20.7005 151.557 20.7038L152.324 20.8772C152.344 20.8806 152.357 20.9039 152.354 20.9239L152.18 21.6778C152.177 21.6978 152.154 21.7111 152.134 21.7078L151.37 21.5343Z" fill="#5E5E5D"/>
<path d="M152.894 20.8805L153.661 21.054C153.748 21.074 153.805 21.1607 153.785 21.2508L153.615 22.0046C153.595 22.0913 153.508 22.148 153.418 22.128L152.651 21.9546C152.564 21.9346 152.507 21.8479 152.527 21.7578L152.697 21.004C152.717 20.9139 152.807 20.8605 152.894 20.8805Z" fill="#585857"/>
<path d="M152.681 21.8312C152.661 21.8279 152.648 21.8045 152.651 21.7845L152.821 21.0307C152.824 21.0107 152.848 20.9973 152.868 21.0007L153.635 21.1741C153.655 21.1774 153.668 21.2008 153.665 21.2208L153.495 21.9746C153.491 21.9946 153.468 22.008 153.448 22.0047L152.681 21.8312Z" fill="#5E5E5D"/>
<path d="M154.205 21.1739L154.972 21.3474C155.059 21.3674 155.115 21.4541 155.095 21.5442L154.925 22.298C154.905 22.3847 154.818 22.4414 154.728 22.4214L153.961 22.2479C153.875 22.2279 153.818 22.1412 153.838 22.0512L154.011 21.2973C154.028 21.2106 154.118 21.1539 154.205 21.1739Z" fill="#585857"/>
<path d="M153.991 22.1247C153.971 22.1214 153.958 22.098 153.961 22.078L154.132 21.3242C154.135 21.3042 154.158 21.2908 154.178 21.2942L154.945 21.4676C154.965 21.471 154.979 21.4943 154.975 21.5143L154.805 22.2682C154.802 22.2882 154.779 22.3015 154.759 22.2982L153.991 22.1247Z" fill="#5E5E5D"/>
<path d="M138.194 18.8558L138.961 19.0293C139.048 19.0493 139.105 19.136 139.085 19.2261L138.915 19.9799C138.895 20.0666 138.808 20.1233 138.718 20.1033L137.951 19.9299C137.864 19.9098 137.807 19.8231 137.827 19.7331L138.001 18.9792C138.021 18.8925 138.107 18.8358 138.194 18.8558Z" fill="#585857"/>
<path d="M137.981 19.8064C137.961 19.8031 137.948 19.7797 137.951 19.7597L138.121 19.0059C138.124 18.9859 138.148 18.9725 138.168 18.9759L138.935 19.1493C138.955 19.1526 138.968 19.176 138.965 19.196L138.795 19.9498C138.791 19.9699 138.768 19.9832 138.748 19.9799L137.981 19.8064Z" fill="#5E5E5D"/>
<path d="M139.509 19.1526L140.276 19.3261C140.363 19.3461 140.419 19.4328 140.399 19.5229L140.229 20.2767C140.209 20.3634 140.123 20.4201 140.033 20.4001L139.265 20.2267C139.179 20.2067 139.122 20.1199 139.142 20.0299L139.312 19.2761C139.332 19.186 139.419 19.1326 139.509 19.1526Z" fill="#585857"/>
<path d="M139.292 20.1033C139.272 20.1 139.259 20.0766 139.262 20.0566L139.432 19.3028C139.435 19.2827 139.459 19.2694 139.479 19.2727L140.246 19.4462C140.266 19.4495 140.279 19.4729 140.276 19.4929L140.106 20.2467C140.103 20.2667 140.079 20.2801 140.059 20.2767L139.292 20.1033Z" fill="#5E5E5D"/>
<path d="M140.819 19.4462L141.587 19.6197C141.673 19.6397 141.73 19.7264 141.71 19.8165L141.54 20.5703C141.52 20.657 141.433 20.7137 141.343 20.6937L140.576 20.5203C140.489 20.5002 140.433 20.4135 140.453 20.3235L140.623 19.5696C140.643 19.4829 140.729 19.4262 140.819 19.4462Z" fill="#585857"/>
<path d="M140.606 20.3968C140.586 20.3935 140.573 20.3701 140.576 20.3501L140.746 19.5963C140.75 19.5763 140.773 19.5629 140.793 19.5663L141.56 19.7397C141.58 19.7431 141.593 19.7664 141.59 19.7864L141.42 20.5402C141.417 20.5603 141.393 20.5736 141.373 20.5703L140.606 20.3968Z" fill="#5E5E5D"/>
<path d="M142.13 19.7397L142.897 19.9132C142.984 19.9332 143.041 20.0199 143.021 20.11L142.851 20.8638C142.83 20.9505 142.744 21.0072 142.654 20.9872L141.887 20.8138C141.8 20.7938 141.743 20.707 141.763 20.617L141.933 19.8632C141.953 19.7764 142.04 19.7197 142.13 19.7397Z" fill="#585857"/>
<path d="M141.917 20.6903C141.897 20.687 141.883 20.6637 141.887 20.6436L142.057 19.8898C142.06 19.8698 142.084 19.8565 142.104 19.8598L142.871 20.0332C142.891 20.0366 142.904 20.0599 142.901 20.0799L142.731 20.8338C142.727 20.8538 142.704 20.8671 142.684 20.8638L141.917 20.6903Z" fill="#5E5E5D"/>
<path d="M143.442 20.0366L144.209 20.21C144.295 20.23 144.352 20.3167 144.332 20.4068L144.162 21.1606C144.142 21.2474 144.055 21.3041 143.965 21.284L143.198 21.1106C143.111 21.0906 143.055 21.0039 143.075 20.9138L143.245 20.16C143.265 20.0699 143.355 20.0165 143.442 20.0366Z" fill="#585857"/>
<path d="M143.228 20.9872C143.208 20.9839 143.194 20.9605 143.198 20.9405L143.368 20.1867C143.371 20.1667 143.395 20.1533 143.415 20.1567L144.182 20.3301C144.202 20.3334 144.215 20.3568 144.212 20.3768L144.042 21.1306C144.038 21.1506 144.015 21.164 143.995 21.1607L143.228 20.9872Z" fill="#5E5E5D"/>
<path d="M144.752 20.3299L145.519 20.5034C145.606 20.5234 145.663 20.6101 145.643 20.7002L145.473 21.454C145.453 21.5407 145.366 21.5974 145.276 21.5774L144.509 21.404C144.422 21.3839 144.365 21.2972 144.385 21.2072L144.555 20.4533C144.575 20.3666 144.665 20.3099 144.752 20.3299Z" fill="#585857"/>
<path d="M144.539 21.2807C144.519 21.2774 144.506 21.254 144.509 21.234L144.679 20.4802C144.682 20.4602 144.706 20.4469 144.726 20.4502L145.493 20.6236C145.513 20.627 145.526 20.6503 145.523 20.6703L145.353 21.4242C145.349 21.4442 145.326 21.4575 145.306 21.4542L144.539 21.2807Z" fill="#5E5E5D"/>
<path d="M146.063 20.6269L146.83 20.8004C146.917 20.8204 146.973 20.9071 146.953 20.9972L146.783 21.751C146.763 21.8377 146.676 21.8944 146.586 21.8744L145.819 21.701C145.733 21.681 145.676 21.5943 145.696 21.5042L145.866 20.7504C145.889 20.6603 145.976 20.6069 146.063 20.6269Z" fill="#585857"/>
<path d="M145.849 21.5776C145.829 21.5743 145.816 21.5509 145.819 21.5309L145.99 20.7771C145.993 20.7571 146.016 20.7437 146.036 20.7471L146.803 20.9205C146.823 20.9238 146.837 20.9472 146.833 20.9672L146.663 21.721C146.66 21.741 146.637 21.7544 146.617 21.7511L145.849 21.5776Z" fill="#5E5E5D"/>
<path d="M147.374 20.9203L148.141 21.0938C148.228 21.1138 148.284 21.2005 148.264 21.2906L148.094 22.0444C148.074 22.1311 147.988 22.1878 147.897 22.1678L147.13 21.9943C147.044 21.9743 146.987 21.8876 147.007 21.7976L147.177 21.0437C147.2 20.957 147.287 20.9003 147.374 20.9203Z" fill="#585857"/>
<path d="M147.16 21.8711C147.14 21.8678 147.127 21.8444 147.13 21.8244L147.3 21.0706C147.304 21.0506 147.327 21.0372 147.347 21.0406L148.114 21.214C148.134 21.2174 148.147 21.2407 148.144 21.2607L147.974 22.0146C147.971 22.0346 147.947 22.0479 147.927 22.0446L147.16 21.8711Z" fill="#5E5E5D"/>
<path d="M148.685 21.2141L149.452 21.3875C149.539 21.4075 149.595 21.4942 149.575 21.5843L149.405 22.3381C149.385 22.4249 149.299 22.4816 149.209 22.4615L148.441 22.2881C148.355 22.2681 148.298 22.1814 148.318 22.0913L148.488 21.3375C148.511 21.2508 148.598 21.1941 148.685 21.2141Z" fill="#585857"/>
<path d="M148.471 22.1647C148.451 22.1613 148.438 22.138 148.441 22.118L148.611 21.3641C148.615 21.3441 148.638 21.3308 148.658 21.3341L149.425 21.5076C149.445 21.5109 149.458 21.5342 149.455 21.5543L149.285 22.3081C149.282 22.3281 149.258 22.3414 149.238 22.3381L148.471 22.1647Z" fill="#5E5E5D"/>
<path d="M149.995 21.5109L150.763 21.6843C150.849 21.7043 150.906 21.7911 150.886 21.8811L150.716 22.6349C150.696 22.7217 150.609 22.7784 150.519 22.7584L149.752 22.5849C149.665 22.5649 149.609 22.4782 149.629 22.3881L149.799 21.6343C149.822 21.5442 149.909 21.4909 149.995 21.5109Z" fill="#585857"/>
<path d="M149.782 22.4615C149.762 22.4582 149.749 22.4348 149.752 22.4148L149.922 21.661C149.926 21.641 149.949 21.6276 149.969 21.631L150.736 21.8044C150.756 21.8078 150.769 21.8311 150.766 21.8511L150.596 22.605C150.593 22.625 150.569 22.6383 150.549 22.635L149.782 22.4615Z" fill="#5E5E5D"/>
<path d="M151.31 21.8045L152.077 21.9779C152.164 21.9979 152.22 22.0846 152.2 22.1747L152.03 22.9285C152.01 23.0153 151.923 23.072 151.833 23.0519L151.066 22.8785C150.979 22.8585 150.923 22.7718 150.943 22.6817L151.113 21.9279C151.133 21.8411 151.22 21.7844 151.31 21.8045Z" fill="#585857"/>
<path d="M151.093 22.7551C151.073 22.7517 151.059 22.7284 151.063 22.7084L151.233 21.9545C151.236 21.9345 151.26 21.9212 151.28 21.9245L152.047 22.098C152.067 22.1013 152.08 22.1246 152.077 22.1447L151.907 22.8985C151.903 22.9185 151.88 22.9318 151.86 22.9285L151.093 22.7551Z" fill="#5E5E5D"/>
<path d="M152.621 22.1013L153.388 22.2747C153.475 22.2947 153.531 22.3815 153.511 22.4715L153.341 23.2253C153.321 23.3121 153.234 23.3688 153.144 23.3488L152.377 23.1753C152.29 23.1553 152.234 23.0686 152.254 22.9785L152.424 22.2247C152.444 22.1346 152.531 22.0813 152.621 22.1013Z" fill="#585857"/>
<path d="M152.407 23.0519C152.387 23.0486 152.374 23.0252 152.377 23.0052L152.547 22.2514C152.551 22.2314 152.574 22.218 152.594 22.2214L153.361 22.3948C153.381 22.3982 153.395 22.4215 153.391 22.4415L153.221 23.1953C153.218 23.2154 153.195 23.2287 153.175 23.2254L152.407 23.0519Z" fill="#5E5E5D"/>
<path d="M153.932 22.3948L154.699 22.5683C154.786 22.5883 154.842 22.675 154.822 22.7651L154.652 23.5189C154.632 23.6056 154.545 23.6623 154.455 23.6423L153.688 23.4689C153.602 23.4489 153.545 23.3622 153.565 23.2721L153.735 22.5183C153.755 22.4315 153.842 22.3748 153.932 22.3948Z" fill="#585857"/>
<path d="M153.718 23.3454C153.698 23.3421 153.685 23.3188 153.688 23.2987L153.858 22.5449C153.861 22.5249 153.885 22.5116 153.905 22.5149L154.672 22.6883C154.692 22.6917 154.705 22.715 154.702 22.735L154.532 23.4889C154.529 23.5089 154.505 23.5222 154.485 23.5189L153.718 23.3454Z" fill="#5E5E5D"/>
<path d="M137.921 20.0765L138.688 20.25C138.775 20.27 138.832 20.3567 138.812 20.4468L138.642 21.2006C138.622 21.2873 138.535 21.344 138.445 21.324L137.678 21.1506C137.591 21.1306 137.534 21.0438 137.554 20.9538L137.724 20.1999C137.748 20.1132 137.835 20.0565 137.921 20.0765Z" fill="#585857"/>
<path d="M137.708 21.0271C137.687 21.0238 137.674 21.0004 137.677 20.9804L137.848 20.2266C137.851 20.2066 137.874 20.1933 137.894 20.1966L138.661 20.37C138.681 20.3734 138.695 20.3967 138.691 20.4167L138.521 21.1706C138.518 21.1906 138.495 21.2039 138.475 21.2006L137.708 21.0271Z" fill="#5E5E5D"/>
<path d="M139.232 20.37L139.999 20.5434C140.086 20.5634 140.142 20.6502 140.122 20.7402L139.952 21.494C139.932 21.5808 139.846 21.6375 139.755 21.6175L138.988 21.444C138.902 21.424 138.845 21.3373 138.865 21.2472L139.035 20.4934C139.058 20.4067 139.145 20.3533 139.232 20.37Z" fill="#585857"/>
<path d="M139.019 21.3242C138.999 21.3209 138.985 21.2975 138.989 21.2775L139.159 20.5237C139.162 20.5037 139.185 20.4903 139.205 20.4937L139.972 20.6671C139.993 20.6705 140.006 20.6938 140.003 20.7138L139.832 21.4677C139.829 21.4877 139.806 21.501 139.786 21.4977L139.019 21.3242Z" fill="#5E5E5D"/>
<path d="M140.542 20.6669L141.31 20.8404C141.396 20.8604 141.453 20.9471 141.433 21.0372L141.263 21.791C141.243 21.8777 141.156 21.9344 141.066 21.9144L140.299 21.741C140.212 21.721 140.155 21.6342 140.176 21.5442L140.346 20.7903C140.369 20.7036 140.456 20.6469 140.542 20.6669Z" fill="#585857"/>
<path d="M140.329 21.6175C140.309 21.6142 140.296 21.5908 140.299 21.5708L140.469 20.817C140.473 20.797 140.496 20.7836 140.516 20.787L141.283 20.9604C141.303 20.9638 141.316 20.9871 141.313 21.0071L141.143 21.761C141.14 21.781 141.116 21.7943 141.096 21.791L140.329 21.6175Z" fill="#5E5E5D"/>
<path d="M141.857 20.9605L142.624 21.1339C142.711 21.1539 142.768 21.2406 142.748 21.3307L142.578 22.0845C142.558 22.1713 142.471 22.228 142.381 22.2079L141.614 22.0345C141.527 22.0145 141.47 21.9278 141.49 21.8377L141.66 21.0839C141.68 20.9972 141.767 20.9404 141.857 20.9605Z" fill="#585857"/>
<path d="M141.64 21.9111C141.62 21.9077 141.607 21.8844 141.61 21.8644L141.78 21.1105C141.784 21.0905 141.807 21.0772 141.827 21.0805L142.594 21.254C142.614 21.2573 142.628 21.2806 142.624 21.3007L142.454 22.0545C142.451 22.0745 142.427 22.0878 142.407 22.0845L141.64 21.9111Z" fill="#5E5E5D"/>
<path d="M143.168 21.2575L143.935 21.4309C144.022 21.451 144.078 21.5377 144.058 21.6277L143.888 22.3816C143.868 22.4683 143.781 22.525 143.691 22.505L142.924 22.3315C142.837 22.3115 142.781 22.2248 142.801 22.1347L142.971 21.3809C142.991 21.2909 143.078 21.2375 143.168 21.2575Z" fill="#585857"/>
<path d="M142.954 22.2079C142.934 22.2046 142.921 22.1812 142.924 22.1612L143.094 21.4074C143.098 21.3874 143.121 21.374 143.141 21.3774L143.908 21.5508C143.928 21.5542 143.942 21.5775 143.938 21.5975L143.768 22.3514C143.765 22.3714 143.742 22.3847 143.722 22.3814L142.954 22.2079Z" fill="#5E5E5D"/>
<path d="M144.479 21.5509L145.246 21.7243C145.333 21.7443 145.389 21.831 145.369 21.9211L145.199 22.6749C145.179 22.7617 145.092 22.8184 145.002 22.7983L144.235 22.6249C144.148 22.6049 144.092 22.5182 144.112 22.4281L144.282 21.6743C144.302 21.5875 144.389 21.5308 144.479 21.5509Z" fill="#585857"/>
<path d="M144.265 22.5015C144.245 22.4981 144.232 22.4748 144.235 22.4548L144.405 21.7009C144.408 21.6809 144.432 21.6676 144.452 21.6709L145.219 21.8444C145.239 21.8477 145.252 21.871 145.249 21.8911L145.079 22.6449C145.075 22.6649 145.052 22.6782 145.032 22.6749L144.265 22.5015Z" fill="#5E5E5D"/>
<path d="M145.79 21.8443L146.557 22.0177C146.644 22.0378 146.7 22.1245 146.68 22.2145L146.51 22.9684C146.49 23.0551 146.403 23.1118 146.313 23.0918L145.546 22.9183C145.46 22.8983 145.403 22.8116 145.423 22.7215L145.593 21.9677C145.613 21.881 145.7 21.8276 145.79 21.8443Z" fill="#585857"/>
<path d="M145.576 22.7983C145.556 22.795 145.543 22.7716 145.546 22.7516L145.716 21.9978C145.719 21.9778 145.743 21.9644 145.763 21.9678L146.53 22.1412C146.55 22.1446 146.563 22.1679 146.56 22.1879L146.39 22.9417C146.387 22.9618 146.363 22.9751 146.343 22.9718L145.576 22.7983Z" fill="#5E5E5D"/>
<path d="M147.1 22.1412L147.868 22.3146C147.954 22.3347 148.011 22.4214 147.991 22.5114L147.821 23.2653C147.801 23.352 147.714 23.4087 147.624 23.3887L146.857 23.2152C146.77 23.1952 146.713 23.1085 146.733 23.0184L146.904 22.2646C146.924 22.1745 147.014 22.1212 147.1 22.1412Z" fill="#585857"/>
<path d="M146.887 23.0918C146.867 23.0885 146.854 23.0652 146.857 23.0451L147.027 22.2913C147.03 22.2713 147.054 22.258 147.074 22.2613L147.841 22.4347C147.861 22.4381 147.874 22.4614 147.871 22.4814L147.701 23.2353C147.698 23.2553 147.674 23.2686 147.654 23.2653L146.887 23.0918Z" fill="#5E5E5D"/>
<path d="M148.411 22.4348L149.178 22.6082C149.265 22.6282 149.322 22.715 149.302 22.805L149.131 23.5588C149.111 23.6456 149.025 23.7023 148.935 23.6823L148.167 23.5088C148.081 23.4888 148.024 23.4021 148.044 23.312L148.214 22.5582C148.234 22.4715 148.324 22.4148 148.411 22.4348Z" fill="#585857"/>
<path d="M148.198 23.3854C148.178 23.382 148.164 23.3587 148.168 23.3387L148.338 22.5848C148.341 22.5648 148.364 22.5515 148.384 22.5548L149.152 22.7283C149.172 22.7316 149.185 22.755 149.182 22.775L149.008 23.5288C149.005 23.5488 148.982 23.5622 148.962 23.5588L148.198 23.3854Z" fill="#5E5E5D"/>
<path d="M149.722 22.7316L150.489 22.905C150.576 22.9251 150.633 23.0118 150.613 23.1018L150.442 23.8557C150.422 23.9424 150.336 23.9991 150.246 23.9791L149.479 23.8056C149.392 23.7856 149.335 23.6989 149.355 23.6088L149.525 22.855C149.549 22.7649 149.635 22.7116 149.722 22.7316Z" fill="#585857"/>
<path d="M149.508 23.6822C149.488 23.6789 149.475 23.6589 149.478 23.6355L149.648 22.8817C149.652 22.8617 149.675 22.8484 149.695 22.8517L150.462 23.0251C150.482 23.0285 150.496 23.0518 150.492 23.0718L150.322 23.8257C150.319 23.8457 150.295 23.859 150.275 23.8557L149.508 23.6822Z" fill="#5E5E5D"/>
<path d="M151.033 23.0252L151.8 23.1986C151.887 23.2186 151.944 23.3054 151.924 23.3954L151.754 24.1492C151.734 24.236 151.647 24.2927 151.557 24.2727L150.79 24.0992C150.703 24.0792 150.646 23.9925 150.666 23.9024L150.836 23.1486C150.86 23.0619 150.946 23.0052 151.033 23.0252Z" fill="#585857"/>
<path d="M150.819 23.9758C150.799 23.9724 150.786 23.9491 150.789 23.9291L150.959 23.1752C150.963 23.1552 150.986 23.1419 151.006 23.1452L151.773 23.3187C151.793 23.322 151.807 23.3454 151.803 23.3654L151.633 24.1192C151.63 24.1392 151.607 24.1526 151.586 24.1492L150.819 23.9758Z" fill="#5E5E5D"/>
<path d="M152.344 23.3187L153.111 23.4921C153.198 23.5122 153.254 23.5989 153.234 23.6889L153.064 24.4428C153.044 24.5295 152.957 24.5862 152.867 24.5662L152.1 24.3927C152.013 24.3727 151.957 24.286 151.977 24.1959L152.147 23.4421C152.17 23.3554 152.257 23.2987 152.344 23.3187Z" fill="#585857"/>
<path d="M152.13 24.2726C152.11 24.2693 152.097 24.246 152.1 24.2259L152.27 23.4721C152.274 23.4521 152.297 23.4388 152.317 23.4421L153.084 23.6155C153.104 23.6189 153.118 23.6422 153.114 23.6622L152.944 24.4127C152.941 24.4327 152.918 24.4461 152.898 24.4427L152.13 24.2726Z" fill="#5E5E5D"/>
<path d="M153.658 23.6155L154.425 23.789C154.512 23.809 154.568 23.8957 154.548 23.9858L154.378 24.7396C154.358 24.8263 154.272 24.883 154.182 24.863L153.414 24.6896C153.328 24.6695 153.271 24.5828 153.291 24.4928L153.461 23.7389C153.481 23.6489 153.568 23.5955 153.658 23.6155Z" fill="#585857"/>
<path d="M153.441 24.5662C153.421 24.5628 153.408 24.5395 153.411 24.5195L153.581 23.7656C153.584 23.7456 153.608 23.7323 153.628 23.7356L154.395 23.9091C154.415 23.9124 154.428 23.9358 154.425 23.9558L154.255 24.7096C154.252 24.7296 154.228 24.7429 154.208 24.7396L153.441 24.5662Z" fill="#5E5E5D"/>
<path d="M137.647 21.2975L138.414 21.4709C138.501 21.4909 138.558 21.5777 138.538 21.6677L138.368 22.4215C138.348 22.5083 138.261 22.565 138.171 22.545L137.404 22.3715C137.317 22.3515 137.26 22.2648 137.28 22.1747L137.451 21.4209C137.471 21.3342 137.561 21.2775 137.647 21.2975Z" fill="#585857"/>
<path d="M137.434 22.2481C137.414 22.2447 137.401 22.2214 137.404 22.2014L137.574 21.4475C137.577 21.4275 137.601 21.4142 137.621 21.4175L138.388 21.591C138.408 21.5943 138.421 21.6177 138.418 21.6377L138.248 22.3915C138.245 22.4115 138.221 22.4249 138.201 22.4215L137.434 22.2481Z" fill="#5E5E5D"/>
<path d="M138.958 21.591L139.726 21.7644C139.812 21.7845 139.869 21.8712 139.849 21.9612L139.679 22.7151C139.659 22.8018 139.572 22.8585 139.482 22.8385L138.715 22.665C138.628 22.645 138.571 22.5583 138.591 22.4682L138.762 21.7144C138.782 21.6277 138.872 21.571 138.958 21.591Z" fill="#585857"/>
<path d="M138.745 22.5416C138.725 22.5383 138.712 22.5149 138.715 22.4949L138.885 21.7411C138.889 21.7211 138.912 21.7077 138.932 21.7111L139.699 21.8845C139.719 21.8878 139.732 21.9112 139.729 21.9312L139.559 22.685C139.556 22.705 139.532 22.7184 139.512 22.715L138.745 22.5416Z" fill="#5E5E5D"/>
<path d="M140.269 21.8878L141.037 22.0613C141.123 22.0813 141.18 22.168 141.16 22.2581L140.99 23.0119C140.97 23.0986 140.883 23.1553 140.793 23.1353L140.026 22.9619C139.939 22.9418 139.882 22.8551 139.902 22.7651L140.076 22.0112C140.096 21.9212 140.183 21.8678 140.269 21.8878Z" fill="#585857"/>
<path d="M140.056 22.8382C140.036 22.8349 140.022 22.8116 140.026 22.7915L140.196 22.0377C140.199 22.0177 140.222 22.0044 140.242 22.0077L141.01 22.1811C141.03 22.1845 141.043 22.2078 141.04 22.2278L140.87 22.9817C140.866 23.0017 140.843 23.015 140.823 23.0117L140.056 22.8382Z" fill="#5E5E5D"/>
<path d="M141.58 22.1814L142.347 22.3548C142.434 22.3749 142.491 22.4616 142.471 22.5516L142.3 23.3055C142.28 23.3922 142.194 23.4489 142.104 23.4289L141.337 23.2554C141.25 23.2354 141.193 23.1487 141.213 23.0586L141.383 22.3048C141.407 22.2181 141.493 22.1614 141.58 22.1814Z" fill="#585857"/>
<path d="M141.367 23.132C141.347 23.1287 141.333 23.1053 141.337 23.0853L141.507 22.3315C141.51 22.3115 141.534 22.2981 141.554 22.3014L142.321 22.4749C142.341 22.4782 142.354 22.5016 142.351 22.5216L142.181 23.2754C142.177 23.2954 142.154 23.3088 142.134 23.3054L141.367 23.132Z" fill="#5E5E5D"/>
<path d="M147.59 23.5322L142.884 22.4749C142.797 22.4549 142.714 22.5082 142.694 22.595L142.51 23.4055C142.497 23.4655 142.534 23.5256 142.594 23.5389L147.344 24.6063C147.43 24.6263 147.52 24.5696 147.54 24.4829L147.71 23.729C147.734 23.6423 147.68 23.5522 147.59 23.5322Z" fill="#585857"/>
<path d="M142.641 23.4188L142.821 22.6216C142.824 22.6049 142.844 22.5915 142.861 22.5982L147.567 23.6556C147.587 23.6589 147.6 23.6823 147.597 23.7023L147.427 24.4561C147.424 24.4761 147.4 24.4895 147.38 24.4861L142.641 23.4188Z" fill="#5E5E5D"/>
<path d="M148.138 23.6557L148.905 23.8292C148.992 23.8492 149.049 23.9359 149.029 24.026L148.858 24.7798C148.838 24.8665 148.752 24.9232 148.662 24.9032L147.894 24.7298C147.808 24.7097 147.751 24.623 147.771 24.533L147.941 23.7791C147.961 23.6924 148.048 23.6357 148.138 23.6557Z" fill="#585857"/>
<path d="M147.924 24.6063C147.904 24.603 147.891 24.5796 147.894 24.5596L148.064 23.8058C148.068 23.7858 148.091 23.7724 148.111 23.7758L148.878 23.9492C148.898 23.9525 148.912 23.9759 148.908 23.9959L148.738 24.7497C148.735 24.7697 148.711 24.7831 148.691 24.7798L147.924 24.6063Z" fill="#5E5E5D"/>
<path d="M149.449 23.9525L150.216 24.126C150.302 24.146 150.359 24.2327 150.339 24.3228L150.169 25.0766C150.149 25.1633 150.062 25.22 149.972 25.2L149.205 25.0266C149.118 25.0066 149.062 24.9198 149.082 24.8298L149.252 24.0759C149.272 23.9859 149.362 23.9325 149.449 23.9525Z" fill="#585857"/>
<path d="M149.235 24.9032C149.215 24.8998 149.202 24.8765 149.205 24.8565L149.375 24.1027C149.379 24.0826 149.402 24.0693 149.422 24.0726L150.189 24.2461C150.209 24.2494 150.223 24.2728 150.219 24.2928L150.049 25.0466C150.046 25.0666 150.022 25.08 150.002 25.0766L149.235 24.9032Z" fill="#5E5E5D"/>
<path d="M150.759 24.2461L151.526 24.4196C151.613 24.4396 151.67 24.5263 151.65 24.6164L151.48 25.3702C151.46 25.4569 151.373 25.5136 151.283 25.4936L150.516 25.3201C150.429 25.3001 150.372 25.2134 150.392 25.1234L150.562 24.3695C150.582 24.2828 150.672 24.2261 150.759 24.2461Z" fill="#585857"/>
<path d="M150.546 25.1967C150.526 25.1934 150.513 25.17 150.516 25.15L150.686 24.3962C150.689 24.3762 150.713 24.3628 150.733 24.3662L151.5 24.5396C151.52 24.5429 151.533 24.5663 151.53 24.5863L151.36 25.3401C151.356 25.3602 151.336 25.3735 151.313 25.3702L150.546 25.1967Z" fill="#5E5E5D"/>
<path d="M152.07 24.5394L152.837 24.7129C152.924 24.7329 152.981 24.8196 152.961 24.9097L152.791 25.6635C152.771 25.7502 152.684 25.8069 152.594 25.7869L151.827 25.6135C151.74 25.5934 151.683 25.5067 151.703 25.4167L151.873 24.6628C151.897 24.5761 151.983 24.5194 152.07 24.5394Z" fill="#585857"/>
<path d="M151.856 25.4902C151.836 25.4869 151.823 25.4636 151.826 25.4435L151.997 24.6897C152 24.6697 152.023 24.6564 152.043 24.6597L152.81 24.8331C152.83 24.8365 152.844 24.8598 152.84 24.8798L152.67 25.6337C152.667 25.6537 152.644 25.667 152.624 25.6637L151.856 25.4902Z" fill="#5E5E5D"/>
<path d="M153.381 24.8365L154.148 25.0099C154.235 25.0299 154.292 25.1166 154.272 25.2067L154.102 25.9605C154.082 26.0472 153.995 26.104 153.905 26.0839L153.138 25.9105C153.051 25.8905 152.994 25.8038 153.014 25.7137L153.184 24.9599C153.208 24.8698 153.295 24.8164 153.381 24.8365Z" fill="#585857"/>
<path d="M153.168 25.7871C153.148 25.7838 153.135 25.7604 153.138 25.7404L153.308 24.9866C153.311 24.9666 153.335 24.9532 153.355 24.9566L154.122 25.13C154.142 25.1333 154.155 25.1567 154.152 25.1767L153.982 25.9305C153.979 25.9505 153.955 25.9639 153.935 25.9605L153.168 25.7871Z" fill="#5E5E5D"/>
<path d="M147.354 25.6602L143.504 24.7963C143.331 24.7563 143.158 24.8664 143.121 25.0398L142.657 27.0978C142.617 27.2713 142.727 27.4447 142.901 27.4814L146.75 28.3453C146.923 28.3853 147.097 28.2753 147.134 28.1018L147.597 26.0438C147.637 25.8704 147.527 25.7002 147.354 25.6602Z" fill="#EDEDED"/>
<path d="M147.384 25.5367L143.534 24.6728C143.294 24.6195 143.054 24.7696 143.001 25.0097L142.537 27.0678C142.484 27.3079 142.634 27.5481 142.874 27.6014L146.723 28.4653C146.963 28.5187 147.204 28.3686 147.257 28.1285L147.721 26.0704C147.774 25.8303 147.624 25.5935 147.384 25.5367ZM147.137 28.1018C147.097 28.2752 146.927 28.3853 146.753 28.3453L142.904 27.4814C142.731 27.4413 142.621 27.2712 142.661 27.0978L143.124 25.0398C143.164 24.8663 143.334 24.7562 143.508 24.7963L147.357 25.6602C147.53 25.7002 147.64 25.8703 147.6 26.0437L147.137 28.1018Z" fill="#9D9B9B"/>
<path d="M142.888 26.0838L142.661 27.0978C142.621 27.2712 142.731 27.4447 142.904 27.4813L146.754 28.3452C146.927 28.3853 147.1 28.2752 147.137 28.1017L147.364 27.0877L142.888 26.0838Z" fill="#DFDFDE"/>
<path d="M145.109 26.581L142.888 26.0806L142.661 27.0946C142.621 27.2681 142.731 27.4415 142.904 27.4782L144.812 27.9085L145.109 26.581Z" fill="#D9D9DA"/>
<path d="M156.59 19.753L137.691 15.5036C137.581 15.4769 137.504 15.3735 137.514 15.2601L139.492 4.44633C139.519 4.14946 139.799 3.946 140.089 4.01271L159.338 8.34222C159.629 8.40893 159.795 8.71246 159.692 8.99265L156.853 19.6096C156.813 19.7164 156.703 19.7797 156.59 19.753Z" fill="#E3E1E1"/>
<path d="M138.338 14.4661L140.163 5.33681C140.189 5.05663 140.453 4.86317 140.726 4.92654L158.368 8.89248C158.641 8.95252 158.798 9.24271 158.701 9.50622L156.447 18.5355C156.367 18.7556 156.136 18.879 155.906 18.829L138.702 14.9598C138.471 14.9098 138.318 14.6963 138.338 14.4661Z" fill="#C7C7C6"/>
<path d="M138.465 14.4795L140.289 5.34347C140.309 5.14001 140.499 4.99991 140.699 5.04661L158.348 9.01589C158.544 9.05925 158.661 9.26939 158.591 9.45951L156.33 18.4954C156.273 18.6556 156.106 18.7456 155.939 18.7089L138.725 14.8364C138.561 14.7997 138.448 14.6463 138.465 14.4795Z" fill="#C6E6F2"/>
<path opacity="0.24" d="M138.738 13.6056C139.065 13.0185 139.512 12.4648 140.006 12.0045C141.286 10.8137 143.071 10.1566 144.752 9.7964C146.733 9.36946 148.952 8.49555 150.966 8.67233C153.761 8.91249 155.653 9.33944 158.301 10.25L158.591 9.45952C158.661 9.26939 158.548 9.05925 158.348 9.01589L140.699 5.04662C140.503 5.00325 140.309 5.14335 140.289 5.34348L138.495 14.1493C138.555 13.9525 138.651 13.7623 138.738 13.6056Z" fill="#B6E0ED"/>
<path d="M153.851 19.1392L140.403 16.1139L140.409 15.8871L153.968 18.9358L153.851 19.1392Z" fill="#585857"/>
<path d="M149.472 6.54767C149.492 6.46428 149.576 6.41091 149.659 6.43092C149.742 6.45094 149.796 6.53432 149.776 6.61771C149.756 6.7011 149.672 6.75447 149.589 6.73446C149.505 6.71778 149.452 6.63439 149.472 6.54767Z" fill="#3C3C3B"/>
<path d="M149.515 6.55767C149.529 6.49763 149.589 6.46094 149.649 6.47428C149.709 6.48762 149.745 6.54766 149.732 6.6077C149.719 6.66774 149.659 6.70443 149.599 6.69109C149.539 6.67774 149.502 6.61771 149.515 6.55767Z" fill="#585857"/>
<path d="M149.579 6.5744C149.585 6.55105 149.609 6.53438 149.632 6.54105C149.655 6.54772 149.672 6.57107 149.665 6.59442C149.659 6.61777 149.635 6.63444 149.612 6.62777C149.589 6.6211 149.572 6.59775 149.579 6.5744Z" fill="#B6E0ED"/>
</g>
<path d="M29.8077 81.6373C28.9108 77.8458 25.1193 75.5074 21.3483 76.4079C17.5721 77.3085 15.2432 81.1154 16.1401 84.9018C16.772 87.5626 18.8308 89.5069 21.3075 90.1158C21.4502 90.4945 21.7152 92.7919 22.1891 93.5287C22.4031 93.8613 22.6732 93.9176 23.086 93.8306C23.4173 95.0126 24.8034 96.0974 25.9449 95.9899C26.745 95.9132 27.3259 95.3606 27.5858 94.6186C27.7896 94.0404 27.9527 93.3752 28.0546 92.7305C28.605 92.7152 28.87 92.6589 28.8445 92.1421C28.7987 91.2467 27.8304 88.7804 27.7947 88.4017C29.5529 86.7285 30.409 84.1804 29.8077 81.6373Z" fill="#FDFFFC"/>
<path d="M26.1538 81.3816C26.0468 80.9978 25.6697 80.742 25.2722 80.8392C24.9002 80.9262 24.6199 81.3407 24.732 81.7244C24.7983 81.9598 24.9715 82.1491 25.1805 82.2361C25.0276 83.2288 24.8339 84.2061 24.7524 85.209C24.676 86.1402 24.5995 87.051 24.3957 87.9567C23.2898 86.2937 22.1891 84.6359 20.9712 83.0548C21.3075 82.7324 21.0527 82.011 20.487 82.144C19.8195 82.3026 20.0641 83.3465 20.7367 83.1878C20.7418 83.1878 20.7469 83.1827 20.752 83.1776C22.0158 84.9736 23.2542 86.7952 24.2836 88.7396C24.3957 88.9493 24.7014 88.9033 24.7728 88.6884C25.1091 87.6855 25.2059 86.6621 25.2773 85.6132C25.3588 84.4824 25.578 83.372 25.6697 82.2463C26.0111 82.1338 26.2557 81.7449 26.1538 81.3816Z" fill="#AEB4FC"/>
<path d="M17.6685 75.2006C16.2467 74.4944 14.8198 73.7832 13.398 73.072C13.1024 72.9287 12.8323 73.3534 13.1279 73.512C14.514 74.2795 15.9052 75.0419 17.2914 75.8095C17.699 76.0346 18.0761 75.4052 17.6685 75.2006Z" fill="#808AFF"/>
<path d="M20.3441 69.7767C20.2269 69.5157 19.8906 69.7051 19.916 69.9404C20.0893 71.4141 20.6346 72.9184 21.0626 74.3409C21.1697 74.6888 21.7047 74.5711 21.6181 74.2078C21.2665 72.7444 20.9607 71.1531 20.3441 69.7767Z" fill="#808AFF"/>
<path d="M26.9691 69.347C26.6022 69.6693 26.378 70.181 26.1487 70.6108C25.9092 71.0611 25.6951 71.5216 25.4913 71.9872C25.3282 72.3659 25.955 72.5654 26.113 72.1766C26.3016 71.7007 26.5054 71.2402 26.7398 70.7848C26.9386 70.3908 27.229 70.007 27.3462 69.5823C27.4125 69.3521 27.1373 69.1935 26.9691 69.347Z" fill="#808AFF"/>
<defs>
<clipPath id="clip0_1_2329">
<rect width="14" height="17" fill="white" transform="translate(147 41)"/>
</clipPath>
<clipPath id="clip1_1_2329">
<rect width="69" height="12" fill="white" transform="translate(51 134)"/>
</clipPath>
<clipPath id="clip2_1_2329">
<rect width="32" height="26" fill="white" transform="translate(132 75)"/>
</clipPath>
<clipPath id="clip3_1_2329">
<rect width="35" height="35" fill="white" transform="translate(34)"/>
</clipPath>
</defs>
</svg>
